<svg width="26" height="26" viewBox="0 0 26 26" fill="none" xmlns="http://www.w3.org/2000/svg">
<path d="M13 1C6.37212 1 1 6.37212 1 13C1 19.6279 6.37212 25 13 25C19.6279 25 25 19.6279 25 13C25 6.37212 19.6305 1 13 1Z" stroke="#C1A1A7" stroke-miterlimit="10"/>
<path d="M13.3621 14.5918C13.5211 14.2245 13.7138 13.9119 13.9405 13.6565C14.1672 13.4012 14.4668 13.1094 14.8419 12.7812C15.2041 12.4633 15.4907 12.1898 15.6991 11.9579C15.9075 11.726 16.0847 11.4446 16.2254 11.1164C16.366 10.7881 16.439 10.4077 16.439 9.97786C16.439 9.21972 16.1498 8.60748 15.5714 8.14373C14.993 7.67999 14.1776 7.44812 13.125 7.44812C12.3096 7.44812 11.6009 7.56796 11.0017 7.80504C10.3999 8.04213 9.88666 8.40687 9.45418 8.89145L9.2171 8.65437C10.1342 7.6357 11.4368 7.12506 13.125 7.12506C13.8623 7.12506 14.5032 7.2449 15.053 7.48199C15.6027 7.71907 16.0273 8.05515 16.327 8.48503C16.6266 8.9149 16.7777 9.4073 16.7777 9.96223C16.7777 10.439 16.7021 10.8585 16.5484 11.2206C16.3947 11.5827 16.2071 11.8928 15.9805 12.1481C15.7538 12.4034 15.4542 12.6952 15.079 13.0235C14.7169 13.3517 14.4303 13.6331 14.2219 13.865C14.0108 14.0968 13.8337 14.3808 13.6878 14.7143C13.5393 15.0478 13.4663 15.436 13.4663 15.8789H13.1277C13.1277 15.3917 13.2058 14.9644 13.3647 14.5971L13.3621 14.5918ZM12.987 18.9844C12.8958 18.8932 12.8515 18.7916 12.8515 18.6796C12.8515 18.5545 12.8958 18.4503 12.987 18.3643C13.0782 18.2783 13.1798 18.2367 13.2918 18.2367C13.4168 18.2367 13.5211 18.2783 13.607 18.3643C13.693 18.4503 13.7347 18.5545 13.7347 18.6796C13.7347 18.7942 13.693 18.8958 13.607 18.9844C13.5211 19.0756 13.4168 19.1199 13.2918 19.1199C13.1772 19.1199 13.0755 19.0756 12.987 18.9844Z" fill="#C1A1A7" stroke="#C1A1A7"/>
</svg>
