<svg width="78" height="76" viewBox="0 0 78 76" fill="none" xmlns="http://www.w3.org/2000/svg">
<path d="M39.3572 75.2495H39.4822V75.2478C59.6863 75.1818 76.5202 59.1183 77.8391 38.6262L77.8471 38.5014L77.7224 38.4934L77.5221 38.4805L77.3973 38.4724L77.3893 38.5972C76.083 58.8959 59.3758 74.7943 39.3572 74.7943C19.3385 74.7943 2.63132 58.8973 1.32504 38.6001L1.31701 38.4753L1.19226 38.4834L0.991959 38.4963L0.867234 38.5043L0.875258 38.629C1.51342 48.5488 5.79954 57.7755 12.9442 64.6074C20.1202 71.4696 29.5016 75.2495 39.3572 75.2495Z" fill="#602131" stroke="#602131" stroke-width="0.25"/>
<circle cx="1" cy="35.125" r="1" fill="#602131"/>
<circle cx="77" cy="35.125" r="1" fill="#602131"/>
<path d="M59.5727 50.7954C59.5727 50.7954 56.7949 58.0669 51.5653 60.927C46.3357 63.7871 41.9229 70.187 41.9229 70.187L38.1683 74.9853" stroke="#602131" stroke-width="0.5" stroke-miterlimit="10"/>
<path d="M57.4882 1H38.4715C36.5679 1 35.0247 2.54317 35.0247 4.44678V50.5105C35.0247 52.4141 36.5679 53.9572 38.4715 53.9572H57.4882C59.3918 53.9572 60.935 52.4141 60.935 50.5105V4.44678C60.935 2.54317 59.3918 1 57.4882 1Z" fill="#F7F3EF" stroke="#602131" stroke-width="0.5" stroke-miterlimit="10"/>
<path d="M56.577 2.5177H39.3843C37.8871 2.5177 36.6735 3.73136 36.6735 5.22849V49.7288C36.6735 51.2259 37.8871 52.4396 39.3843 52.4396H56.577C58.0741 52.4396 59.2878 51.2259 59.2878 49.7288V5.22849C59.2878 3.73136 58.0741 2.5177 56.577 2.5177Z" fill="#F7F3EF" stroke="#602131" stroke-width="0.5" stroke-miterlimit="10"/>
<path d="M44.5819 46.8V47.282H44.8639C44.8892 47.282 44.9066 47.272 44.9159 47.252C44.9252 47.2307 44.9332 47.1967 44.9399 47.15C44.9412 47.1393 44.9452 47.1327 44.9519 47.13C44.9586 47.126 44.9672 47.124 44.9779 47.124C44.9819 47.124 44.9879 47.1247 44.9959 47.126C45.0052 47.126 45.0119 47.1267 45.0159 47.128C45.0132 47.1587 45.0106 47.1947 45.0079 47.236C45.0066 47.276 45.0059 47.31 45.0059 47.338C45.0059 47.362 45.0066 47.3907 45.0079 47.424C45.0092 47.456 45.0119 47.4927 45.0159 47.534C45.0119 47.5367 45.0052 47.5387 44.9959 47.54C44.9879 47.54 44.9819 47.54 44.9779 47.54C44.9539 47.54 44.9412 47.5307 44.9399 47.512C44.9319 47.4613 44.9226 47.4273 44.9119 47.41C44.9026 47.3913 44.8866 47.382 44.8639 47.382H44.5819V47.83C44.5819 47.858 44.5992 47.8767 44.6339 47.886C44.6686 47.8953 44.7272 47.9 44.8099 47.9H44.8939C44.9339 47.9 44.9672 47.8947 44.9939 47.884C45.0219 47.8733 45.0466 47.8587 45.0679 47.84C45.0892 47.82 45.1079 47.7973 45.1239 47.772C45.1399 47.7453 45.1559 47.716 45.1719 47.684C45.1759 47.6747 45.1852 47.67 45.1999 47.67C45.2066 47.67 45.2146 47.672 45.2239 47.676C45.2332 47.68 45.2426 47.684 45.2519 47.688C45.2492 47.6987 45.2459 47.7087 45.2419 47.718C45.2392 47.7273 45.2366 47.7367 45.2339 47.746C45.2272 47.7607 45.2219 47.7767 45.2179 47.794C45.2139 47.8113 45.2099 47.8253 45.2059 47.836C45.2032 47.8493 45.1999 47.8647 45.1959 47.882C45.1932 47.898 45.1899 47.914 45.1859 47.93C45.1832 47.9447 45.1799 47.958 45.1759 47.97C45.1732 47.982 45.1712 47.99 45.1699 47.994C45.1646 48.0047 45.1539 48.01 45.1379 48.01C45.1272 48.01 45.1119 48.0093 45.0919 48.008C45.0719 48.0067 45.0499 48.0053 45.0259 48.004C45.0032 48.004 44.9799 48.0033 44.9559 48.002C44.9319 48.0007 44.9112 48 44.8939 48H44.4399C44.4012 48 44.3566 48.0007 44.3059 48.002C44.2566 48.0047 44.2119 48.0073 44.1719 48.01C44.1692 48.0047 44.1679 47.998 44.1679 47.99C44.1679 47.9807 44.1679 47.974 44.1679 47.97C44.1679 47.95 44.1746 47.9393 44.1879 47.938C44.2386 47.9287 44.2746 47.9187 44.2959 47.908C44.3186 47.8973 44.3299 47.8787 44.3299 47.852V46.85C44.3299 46.8367 44.3279 46.826 44.3239 46.818C44.3199 46.8087 44.3119 46.8013 44.2999 46.796C44.2892 46.7893 44.2746 46.784 44.2559 46.78C44.2386 46.7747 44.2159 46.7693 44.1879 46.764C44.1746 46.76 44.1679 46.748 44.1679 46.728C44.1679 46.7213 44.1679 46.7153 44.1679 46.71C44.1679 46.7033 44.1692 46.6967 44.1719 46.69C44.2292 46.694 44.2799 46.6967 44.3239 46.698C44.3679 46.6993 44.4059 46.7 44.4379 46.7H44.8479C44.9079 46.7 44.9592 46.698 45.0019 46.694C45.0459 46.69 45.0759 46.688 45.0919 46.688C45.1066 46.688 45.1172 46.694 45.1239 46.706C45.1279 46.7167 45.1312 46.7367 45.1339 46.766C45.1366 46.794 45.1412 46.8233 45.1479 46.854C45.1519 46.8767 45.1566 46.8987 45.1619 46.92C45.1672 46.9413 45.1752 46.9673 45.1859 46.998C45.1792 47.0007 45.1719 47.0033 45.1639 47.006C45.1559 47.0087 45.1479 47.01 45.1399 47.01C45.1252 47.01 45.1146 47.004 45.1079 46.992C45.0919 46.9573 45.0759 46.928 45.0599 46.904C45.0452 46.8787 45.0279 46.8587 45.0079 46.844C44.9892 46.828 44.9666 46.8167 44.9399 46.81C44.9146 46.8033 44.8839 46.8 44.8479 46.8H44.5819Z" fill="#602131"/>
<path d="M45.9347 47.386C45.9161 47.3847 45.9054 47.3773 45.9027 47.364C45.8934 47.3093 45.8721 47.2693 45.8387 47.244C45.8054 47.2187 45.7634 47.206 45.7127 47.206C45.6674 47.206 45.6327 47.2173 45.6087 47.24C45.5847 47.2627 45.5727 47.2893 45.5727 47.32C45.5727 47.3347 45.5747 47.348 45.5787 47.36C45.5827 47.372 45.5907 47.3833 45.6027 47.394C45.6161 47.4047 45.6341 47.4153 45.6567 47.426C45.6794 47.4353 45.7101 47.446 45.7487 47.458C45.7941 47.4713 45.8341 47.486 45.8687 47.502C45.9034 47.5167 45.9327 47.5347 45.9567 47.556C45.9807 47.5773 45.9987 47.6033 46.0107 47.634C46.0241 47.6633 46.0307 47.6987 46.0307 47.74C46.0307 47.7787 46.0241 47.8153 46.0107 47.85C45.9987 47.8847 45.9787 47.9153 45.9507 47.942C45.9227 47.9673 45.8874 47.9873 45.8447 48.002C45.8021 48.0167 45.7507 48.024 45.6907 48.024C45.6481 48.024 45.5987 48.0193 45.5427 48.01C45.4881 48.0007 45.4381 47.984 45.3927 47.96C45.3901 47.9253 45.3874 47.8887 45.3847 47.85C45.3834 47.81 45.3827 47.7707 45.3827 47.732H45.4087C45.4234 47.732 45.4361 47.7347 45.4467 47.74C45.4574 47.744 45.4634 47.7513 45.4647 47.762C45.4701 47.818 45.4921 47.8613 45.5307 47.892C45.5694 47.9213 45.6227 47.936 45.6907 47.936C45.7374 47.936 45.7754 47.9253 45.8047 47.904C45.8341 47.8827 45.8487 47.8547 45.8487 47.82C45.8487 47.788 45.8354 47.7607 45.8087 47.738C45.7834 47.7153 45.7347 47.6933 45.6627 47.672C45.5654 47.644 45.4967 47.6073 45.4567 47.562C45.4181 47.5153 45.3987 47.46 45.3987 47.396C45.3987 47.312 45.4267 47.2447 45.4827 47.194C45.5401 47.1433 45.6141 47.118 45.7047 47.118C45.7567 47.118 45.8067 47.1247 45.8547 47.138C45.9041 47.15 45.9434 47.1633 45.9727 47.178C45.9741 47.1887 45.9754 47.2033 45.9767 47.222C45.9781 47.2393 45.9794 47.2587 45.9807 47.28C45.9821 47.3 45.9827 47.32 45.9827 47.34C45.9841 47.3587 45.9847 47.3747 45.9847 47.388L45.9347 47.386Z" fill="#602131"/>
<path d="M46.5778 47.206C46.5218 47.206 46.4798 47.234 46.4518 47.29C46.4238 47.3447 46.4098 47.4187 46.4098 47.512C46.4098 47.6453 46.4338 47.7427 46.4818 47.804C46.5312 47.8653 46.5998 47.896 46.6878 47.896C46.7198 47.896 46.7512 47.8927 46.7818 47.886C46.8138 47.878 46.8485 47.862 46.8858 47.838C46.8992 47.83 46.9112 47.826 46.9218 47.826C46.9325 47.826 46.9412 47.8307 46.9478 47.84C46.9545 47.848 46.9618 47.8613 46.9698 47.88C46.9258 47.92 46.8732 47.954 46.8118 47.982C46.7518 48.01 46.6778 48.024 46.5898 48.024C46.5312 48.024 46.4752 48.0153 46.4218 47.998C46.3698 47.9807 46.3238 47.954 46.2838 47.918C46.2452 47.882 46.2145 47.8373 46.1918 47.784C46.1692 47.7293 46.1578 47.6653 46.1578 47.592C46.1578 47.5213 46.1712 47.4573 46.1978 47.4C46.2258 47.3413 46.2612 47.2913 46.3038 47.25C46.3465 47.2073 46.3945 47.1747 46.4478 47.152C46.5012 47.1293 46.5532 47.118 46.6038 47.118C46.6678 47.118 46.7225 47.1253 46.7678 47.14C46.8132 47.1547 46.8498 47.1733 46.8778 47.196C46.9072 47.2173 46.9285 47.2407 46.9418 47.266C46.9552 47.29 46.9618 47.312 46.9618 47.332C46.9618 47.3427 46.9518 47.3513 46.9318 47.358C46.9132 47.3647 46.8918 47.37 46.8678 47.374C46.8438 47.3767 46.8205 47.3787 46.7978 47.38C46.7765 47.38 46.7625 47.38 46.7558 47.38C46.7438 47.38 46.7338 47.3767 46.7258 47.37C46.7192 47.362 46.7145 47.354 46.7118 47.346C46.7052 47.3287 46.6985 47.312 46.6918 47.296C46.6852 47.2787 46.6772 47.2633 46.6678 47.25C46.6598 47.2367 46.6485 47.226 46.6338 47.218C46.6192 47.21 46.6005 47.206 46.5778 47.206Z" fill="#602131"/>
<path d="M47.9477 47.938C47.9677 47.938 47.9777 47.9547 47.9777 47.988C47.9603 48 47.9383 48.0087 47.9117 48.014C47.8863 48.0207 47.8603 48.024 47.8337 48.024C47.7737 48.024 47.7277 48.0093 47.6957 47.98C47.6637 47.9507 47.645 47.9167 47.6397 47.878C47.613 47.9313 47.577 47.9693 47.5317 47.992C47.4877 48.0133 47.4357 48.024 47.3757 48.024C47.3477 48.024 47.3163 48.0213 47.2817 48.016C47.2483 48.012 47.217 48.0027 47.1877 47.988C47.1597 47.9733 47.1357 47.9527 47.1157 47.926C47.0957 47.8993 47.0857 47.864 47.0857 47.82C47.0857 47.7707 47.0983 47.7287 47.1237 47.694C47.149 47.6593 47.1803 47.6307 47.2177 47.608C47.2563 47.584 47.2983 47.5653 47.3437 47.552C47.389 47.5373 47.4317 47.5253 47.4717 47.516C47.489 47.512 47.507 47.508 47.5257 47.504C47.5443 47.4987 47.559 47.4947 47.5697 47.492C47.5843 47.488 47.5937 47.4827 47.5977 47.476C47.6017 47.468 47.6037 47.4487 47.6037 47.418C47.6037 47.35 47.5937 47.298 47.5737 47.262C47.5537 47.2247 47.5197 47.206 47.4717 47.206C47.433 47.206 47.405 47.218 47.3877 47.242C47.3717 47.266 47.3563 47.304 47.3417 47.356C47.3377 47.3707 47.3257 47.382 47.3057 47.39C47.287 47.3967 47.263 47.404 47.2337 47.412C47.2177 47.416 47.201 47.4193 47.1837 47.422C47.1677 47.4247 47.153 47.426 47.1397 47.426C47.1317 47.426 47.1263 47.4233 47.1237 47.418C47.121 47.4113 47.1197 47.3993 47.1197 47.382C47.1197 47.3487 47.1317 47.316 47.1557 47.284C47.181 47.252 47.2123 47.224 47.2497 47.2C47.287 47.1747 47.3277 47.1547 47.3717 47.14C47.417 47.1253 47.4603 47.118 47.5017 47.118C47.551 47.118 47.5957 47.1227 47.6357 47.132C47.6757 47.14 47.7097 47.1553 47.7377 47.178C47.767 47.1993 47.7897 47.2287 47.8057 47.266C47.8217 47.302 47.8297 47.3487 47.8297 47.406V47.758C47.8297 47.8047 47.8303 47.8387 47.8317 47.86C47.8343 47.8813 47.8383 47.8973 47.8437 47.908C47.8557 47.932 47.8743 47.944 47.8997 47.944C47.9103 47.944 47.919 47.9433 47.9257 47.942C47.9337 47.9393 47.941 47.938 47.9477 47.938ZM47.6037 47.564L47.5597 47.572C47.529 47.5773 47.5003 47.5853 47.4737 47.596C47.447 47.6053 47.4237 47.6187 47.4037 47.636C47.385 47.652 47.3697 47.6727 47.3577 47.698C47.347 47.722 47.3417 47.7513 47.3417 47.786C47.3417 47.838 47.3497 47.8747 47.3657 47.896C47.383 47.916 47.4077 47.926 47.4397 47.926C47.4903 47.926 47.5303 47.9073 47.5597 47.87C47.589 47.8327 47.6037 47.7807 47.6037 47.714V47.564Z" fill="#602131"/>
<path d="M48.9783 47.878C48.9783 47.8967 48.9863 47.9113 49.0023 47.922C49.0183 47.9313 49.0476 47.9393 49.0903 47.946C49.0956 47.9473 49.1003 47.95 49.1043 47.954C49.1096 47.9567 49.1123 47.9627 49.1123 47.972C49.1123 47.98 49.1116 47.9873 49.1103 47.994C49.1103 47.9993 49.1096 48.0047 49.1083 48.01C49.0736 48.0073 49.0389 48.0047 49.0043 48.002C48.9696 48.0007 48.9263 48 48.8743 48C48.8316 48 48.7916 48.0007 48.7543 48.002C48.7169 48.0047 48.6809 48.0073 48.6463 48.01C48.6436 48.0033 48.6423 47.9907 48.6423 47.972C48.6423 47.9573 48.6496 47.9487 48.6643 47.946C48.6989 47.9393 48.7223 47.9313 48.7343 47.922C48.7463 47.9127 48.7523 47.898 48.7523 47.878V47.486C48.7523 47.4073 48.7423 47.3533 48.7223 47.324C48.7036 47.2933 48.6729 47.278 48.6303 47.278C48.5703 47.278 48.5189 47.2987 48.4763 47.34C48.4336 47.38 48.4123 47.44 48.4123 47.52V47.878C48.4123 47.898 48.4183 47.9127 48.4303 47.922C48.4423 47.9313 48.4656 47.9393 48.5003 47.946C48.5149 47.9487 48.5223 47.9573 48.5223 47.972C48.5223 47.9907 48.5209 48.0033 48.5183 48.01C48.4836 48.0073 48.4476 48.0047 48.4103 48.002C48.3729 48.0007 48.3329 48 48.2903 48C48.2383 48 48.1943 48.0007 48.1583 48.002C48.1236 48.0047 48.0896 48.0073 48.0563 48.01C48.0549 48.0047 48.0536 47.9993 48.0523 47.994C48.0523 47.9873 48.0523 47.98 48.0523 47.972C48.0523 47.9627 48.0543 47.9567 48.0583 47.954C48.0636 47.95 48.0689 47.9473 48.0743 47.946C48.1169 47.938 48.1463 47.9293 48.1623 47.92C48.1783 47.9107 48.1863 47.896 48.1863 47.876V47.348C48.1863 47.308 48.1789 47.2773 48.1643 47.256C48.1496 47.2347 48.1189 47.222 48.0723 47.218C48.0549 47.214 48.0463 47.2033 48.0463 47.186C48.0463 47.182 48.0463 47.1773 48.0463 47.172C48.0463 47.1653 48.0476 47.1593 48.0503 47.154C48.0583 47.154 48.0696 47.154 48.0843 47.154C48.1003 47.1527 48.1169 47.152 48.1343 47.152C48.1516 47.1507 48.1689 47.1493 48.1863 47.148C48.2036 47.1467 48.2196 47.1453 48.2343 47.144C48.2676 47.14 48.2996 47.1347 48.3303 47.128C48.3609 47.1213 48.3816 47.118 48.3923 47.118C48.4136 47.118 48.4243 47.128 48.4243 47.148C48.4243 47.1627 48.4223 47.182 48.4183 47.206C48.4143 47.23 48.4123 47.2633 48.4123 47.306C48.4549 47.25 48.5023 47.2047 48.5543 47.17C48.6063 47.1353 48.6603 47.118 48.7163 47.118C48.7976 47.118 48.8616 47.1407 48.9083 47.186C48.9549 47.2313 48.9783 47.2993 48.9783 47.39V47.878Z" fill="#602131"/>
<path d="M49.9803 47.816C49.9923 47.8067 50.003 47.802 50.0123 47.802C50.019 47.802 50.0263 47.8053 50.0343 47.812C50.0436 47.8173 50.053 47.8287 50.0623 47.846C50.0103 47.9073 49.9503 47.9527 49.8823 47.982C49.8156 48.01 49.7363 48.024 49.6443 48.024C49.5923 48.024 49.541 48.016 49.4903 48C49.441 47.9827 49.3963 47.9567 49.3563 47.922C49.3163 47.886 49.2836 47.8413 49.2583 47.788C49.2343 47.7347 49.2223 47.6707 49.2223 47.596C49.2223 47.5227 49.2363 47.4567 49.2643 47.398C49.2936 47.338 49.3303 47.2873 49.3743 47.246C49.4183 47.2047 49.4663 47.1733 49.5183 47.152C49.5703 47.1293 49.6203 47.118 49.6683 47.118C49.7976 47.118 49.895 47.1553 49.9603 47.23C50.027 47.3047 50.0603 47.4067 50.0603 47.536C50.0603 47.5453 50.0556 47.55 50.0463 47.55L49.4723 47.574C49.4723 47.678 49.4956 47.758 49.5423 47.814C49.589 47.8687 49.659 47.896 49.7523 47.896C49.7936 47.896 49.8343 47.8893 49.8743 47.876C49.9143 47.8627 49.9496 47.8427 49.9803 47.816ZM49.6383 47.206C49.5863 47.206 49.5443 47.2287 49.5123 47.274C49.4816 47.318 49.4663 47.388 49.4663 47.484L49.7783 47.47C49.7983 47.4687 49.8083 47.46 49.8083 47.444C49.8083 47.4187 49.805 47.392 49.7983 47.364C49.7916 47.336 49.781 47.3107 49.7663 47.288C49.753 47.264 49.7356 47.2447 49.7143 47.23C49.693 47.214 49.6676 47.206 49.6383 47.206Z" fill="#602131"/>
<path d="M51.0551 47.938C51.0751 47.938 51.0851 47.9547 51.0851 47.988C51.0678 48 51.0458 48.0087 51.0191 48.014C50.9938 48.0207 50.9678 48.024 50.9411 48.024C50.8811 48.024 50.8351 48.0093 50.8031 47.98C50.7711 47.9507 50.7524 47.9167 50.7471 47.878C50.7204 47.9313 50.6844 47.9693 50.6391 47.992C50.5951 48.0133 50.5431 48.024 50.4831 48.024C50.4551 48.024 50.4238 48.0213 50.3891 48.016C50.3558 48.012 50.3244 48.0027 50.2951 47.988C50.2671 47.9733 50.2431 47.9527 50.2231 47.926C50.2031 47.8993 50.1931 47.864 50.1931 47.82C50.1931 47.7707 50.2058 47.7287 50.2311 47.694C50.2564 47.6593 50.2878 47.6307 50.3251 47.608C50.3638 47.584 50.4058 47.5653 50.4511 47.552C50.4964 47.5373 50.5391 47.5253 50.5791 47.516C50.5964 47.512 50.6144 47.508 50.6331 47.504C50.6518 47.4987 50.6664 47.4947 50.6771 47.492C50.6918 47.488 50.7011 47.4827 50.7051 47.476C50.7091 47.468 50.7111 47.4487 50.7111 47.418C50.7111 47.35 50.7011 47.298 50.6811 47.262C50.6611 47.2247 50.6271 47.206 50.5791 47.206C50.5404 47.206 50.5124 47.218 50.4951 47.242C50.4791 47.266 50.4638 47.304 50.4491 47.356C50.4451 47.3707 50.4331 47.382 50.4131 47.39C50.3944 47.3967 50.3704 47.404 50.3411 47.412C50.3251 47.416 50.3084 47.4193 50.2911 47.422C50.2751 47.4247 50.2604 47.426 50.2471 47.426C50.2391 47.426 50.2338 47.4233 50.2311 47.418C50.2284 47.4113 50.2271 47.3993 50.2271 47.382C50.2271 47.3487 50.2391 47.316 50.2631 47.284C50.2884 47.252 50.3198 47.224 50.3571 47.2C50.3944 47.1747 50.4351 47.1547 50.4791 47.14C50.5244 47.1253 50.5678 47.118 50.6091 47.118C50.6584 47.118 50.7031 47.1227 50.7431 47.132C50.7831 47.14 50.8171 47.1553 50.8451 47.178C50.8744 47.1993 50.8971 47.2287 50.9131 47.266C50.9291 47.302 50.9371 47.3487 50.9371 47.406V47.758C50.9371 47.8047 50.9378 47.8387 50.9391 47.86C50.9418 47.8813 50.9458 47.8973 50.9511 47.908C50.9631 47.932 50.9818 47.944 51.0071 47.944C51.0178 47.944 51.0264 47.9433 51.0331 47.942C51.0411 47.9393 51.0484 47.938 51.0551 47.938ZM50.7111 47.564L50.6671 47.572C50.6364 47.5773 50.6078 47.5853 50.5811 47.596C50.5544 47.6053 50.5311 47.6187 50.5111 47.636C50.4924 47.652 50.4771 47.6727 50.4651 47.698C50.4544 47.722 50.4491 47.7513 50.4491 47.786C50.4491 47.838 50.4571 47.8747 50.4731 47.896C50.4904 47.916 50.5151 47.926 50.5471 47.926C50.5978 47.926 50.6378 47.9073 50.6671 47.87C50.6964 47.8327 50.7111 47.7807 50.7111 47.714V47.564Z" fill="#602131"/>
<path d="M51.7957 47.12C51.8344 47.12 51.863 47.13 51.8817 47.15C51.9017 47.17 51.9117 47.1953 51.9117 47.226C51.9117 47.2353 51.9097 47.2433 51.9057 47.25C51.903 47.2567 51.8957 47.264 51.8837 47.272C51.873 47.28 51.8577 47.2893 51.8377 47.3C51.8177 47.3093 51.7917 47.3213 51.7597 47.336C51.7384 47.3147 51.7184 47.3007 51.6997 47.294C51.6824 47.286 51.665 47.282 51.6477 47.282C51.6317 47.282 51.6157 47.2847 51.5997 47.29C51.585 47.2953 51.5717 47.306 51.5597 47.322C51.5477 47.3367 51.5377 47.3567 51.5297 47.382C51.523 47.4073 51.5197 47.44 51.5197 47.48V47.852C51.5197 47.8787 51.5304 47.8987 51.5517 47.912C51.573 47.924 51.615 47.9353 51.6777 47.946C51.6924 47.9487 51.6997 47.9573 51.6997 47.972C51.6997 47.9907 51.6984 48.0033 51.6957 48.01C51.6784 48.0087 51.657 48.0073 51.6317 48.006C51.6064 48.006 51.5797 48.0053 51.5517 48.004C51.5237 48.0027 51.4957 48.0013 51.4677 48C51.441 48 51.417 48 51.3957 48C51.345 48 51.3017 48.0007 51.2657 48.002C51.2297 48.0047 51.1957 48.0073 51.1637 48.01C51.161 48.0033 51.1597 47.9907 51.1597 47.972C51.1597 47.9573 51.167 47.9487 51.1817 47.946C51.2244 47.938 51.2537 47.9293 51.2697 47.92C51.2857 47.9107 51.2937 47.896 51.2937 47.876V47.338C51.2937 47.3073 51.2877 47.2827 51.2757 47.264C51.265 47.2453 51.2337 47.2327 51.1817 47.226C51.163 47.2233 51.1537 47.2133 51.1537 47.196C51.1537 47.192 51.1537 47.1867 51.1537 47.18C51.1537 47.1733 51.155 47.168 51.1577 47.164C51.1657 47.164 51.177 47.164 51.1917 47.164C51.2064 47.1627 51.2224 47.162 51.2397 47.162C51.257 47.1607 51.2744 47.1593 51.2917 47.158C51.309 47.1567 51.3244 47.1547 51.3377 47.152C51.367 47.148 51.397 47.1433 51.4277 47.138C51.4597 47.1313 51.481 47.128 51.4917 47.128C51.5104 47.128 51.5197 47.138 51.5197 47.158V47.266C51.5664 47.2153 51.611 47.1787 51.6537 47.156C51.6964 47.132 51.7437 47.12 51.7957 47.12Z" fill="#602131"/>
<path d="M52 12H53.4775C53.767 12 54 12.2283 54 12.5082V14" stroke="#602131" stroke-width="0.5" stroke-miterlimit="10"/>
<path d="M43 12H41.5225C41.233 12 41 12.2283 41 12.5082V14" stroke="#602131" stroke-width="0.5" stroke-miterlimit="10"/>
<path d="M44 25H42.5633C42.2512 25 42 24.6702 42 24.2661V22" stroke="#602131" stroke-width="0.5" stroke-miterlimit="10"/>
<path d="M54 22V24.2833C54 24.6804 53.7652 25 53.4775 25H52" stroke="#602131" stroke-width="0.5" stroke-miterlimit="10"/>
<path d="M46 14H44V16H46V14Z" stroke="#602131" stroke-width="0.5" stroke-miterlimit="10"/>
<path d="M52 14H50V16H52V14Z" stroke="#602131" stroke-width="0.5" stroke-miterlimit="10"/>
<path d="M52 20H50V22H52V20Z" stroke="#602131" stroke-width="0.5" stroke-miterlimit="10"/>
<path d="M46 20H44V22H46V20Z" stroke="#602131" stroke-width="0.5" stroke-miterlimit="10"/>
<path d="M43 18H48V13" stroke="#602131" stroke-width="0.5" stroke-miterlimit="10"/>
<path d="M49 18H51" stroke="#602131" stroke-width="0.5" stroke-miterlimit="10"/>
<path d="M52 18H53" stroke="#602131" stroke-width="0.5" stroke-miterlimit="10"/>
<path d="M48 23V20" stroke="#602131" stroke-width="0.5" stroke-miterlimit="10"/>
<path d="M39.5427 33.6271H47.7284" stroke="#602131" stroke-width="0.5" stroke-miterlimit="10"/>
<path d="M39.5427 36.3561H54.0597" stroke="#602131" stroke-width="0.5" stroke-miterlimit="10"/>
<path d="M54.7805 45.4058H41.1793C40.0322 45.4058 39.1024 46.3357 39.1024 47.4827V47.4842C39.1024 48.6313 40.0322 49.5612 41.1793 49.5612H54.7805C55.9275 49.5612 56.8574 48.6313 56.8574 47.4842V47.4827C56.8574 46.3357 55.9275 45.4058 54.7805 45.4058Z" stroke="#602131" stroke-width="0.5" stroke-miterlimit="10"/>
<path d="M20.075 69.8213L27.3906 57.4619C27.3906 57.4619 25.4432 50.1905 28.2988 42.2699C31.1559 34.3493 36.6079 22.534 36.6079 22.534C36.6079 22.534 40.1141 23.7027 39.8536 26.6893C39.5945 29.6759 39.0749 31.8823 38.2948 33.7002C37.5161 35.5181 37.0529 39.6521 38.182 42.177C39.3111 44.7003 44.6245 52.4045 41.2372 59.1122" fill="#F7F3EF"/>
<path d="M20.075 69.8213L27.3906 57.4619C27.3906 57.4619 25.4432 50.1905 28.2988 42.2699C31.1559 34.3493 36.6079 22.534 36.6079 22.534C36.6079 22.534 40.1141 23.7027 39.8536 26.6893C39.5945 29.6759 39.0749 31.8823 38.2948 33.7002C37.5161 35.5181 37.0529 39.6521 38.182 42.177C39.3111 44.7003 44.6245 52.4045 41.2372 59.1122" stroke="#602131" stroke-width="0.5" stroke-miterlimit="10"/>
</svg>
