<svg width="26" height="26" viewBox="0 0 26 26" fill="none" xmlns="http://www.w3.org/2000/svg">
<path d="M13 1C6.37212 1 1 6.37212 1 13C1 19.6279 6.37212 25 13 25C19.6279 25 25 19.6279 25 13C25 6.37212 19.6305 1 13 1Z" stroke="#C1A1A7" stroke-miterlimit="10"/>
<path d="M15.5584 11.2596L14.4902 12.3018C14.4433 12.3487 14.4225 12.4138 14.4329 12.4789L14.6856 13.9483C14.7143 14.1124 14.5423 14.2375 14.3938 14.1593L13.073 13.4663C13.0156 13.4351 12.9453 13.4351 12.8854 13.4663L11.5645 14.1593C11.4186 14.2375 11.2466 14.1124 11.2727 13.9483L11.5254 12.4789C11.5358 12.4138 11.515 12.3487 11.4681 12.3018L10.3999 11.2596C10.2801 11.1424 10.3478 10.9418 10.5119 10.9184L11.9892 10.7047C12.0543 10.6943 12.1116 10.6552 12.1403 10.5953L12.7994 9.25878C12.8723 9.11027 13.086 9.11027 13.1589 9.25878L13.8181 10.5953C13.8467 10.6552 13.904 10.6943 13.9692 10.7047L15.4464 10.9184C15.6105 10.9418 15.6756 11.145 15.5584 11.2596Z" stroke="#C1A1A7" stroke-miterlimit="10"/>
<path d="M13.31 5.84584L13.9249 5.74424C14.5736 5.63742 15.2327 5.85106 15.6965 6.32001L16.1342 6.76291C16.2905 6.92183 16.4703 7.0521 16.6683 7.1511L17.2258 7.42987C17.8146 7.72426 18.221 8.28701 18.32 8.93573L18.4138 9.55318C18.4477 9.77203 18.5154 9.98306 18.617 10.1811L18.9036 10.7334C19.2058 11.317 19.2058 12.0126 18.9036 12.5962L18.617 13.1485C18.5154 13.3439 18.4451 13.5575 18.4138 13.7764L18.32 14.3938C18.221 15.0451 17.8146 15.6053 17.2258 15.8997L16.6683 16.1785C16.4703 16.2775 16.2905 16.4077 16.1342 16.5666L15.6965 17.0095C15.2353 17.4785 14.5736 17.6921 13.9249 17.5853L13.31 17.4837C13.0912 17.4472 12.8697 17.4472 12.6509 17.4837L12.036 17.5853C11.3873 17.6921 10.7282 17.4785 10.2644 17.0095L9.82675 16.5666C9.67043 16.4077 9.49067 16.2775 9.29266 16.1785L8.73513 15.8997C8.14633 15.6053 7.73991 15.0425 7.64091 14.3938L7.54711 13.7764C7.51325 13.5575 7.44551 13.3465 7.3439 13.1485L7.05732 12.5962C6.7551 12.0126 6.7551 11.317 7.05732 10.7334L7.3439 10.1811C7.44551 9.98566 7.51585 9.77203 7.54711 9.55318L7.64091 8.93573C7.73991 8.2844 8.14633 7.72426 8.73513 7.42987L9.29266 7.1511C9.49067 7.0521 9.67043 6.92183 9.82675 6.76291L10.2644 6.32001C10.7256 5.85106 11.3873 5.63742 12.036 5.74424L12.6509 5.84584C12.8697 5.88232 13.0912 5.88232 13.31 5.84584Z" stroke="#C1A1A7" stroke-miterlimit="10"/>
<path d="M17.9813 15.2405L19.6279 18.4867L17.3821 18.4555L16.0794 20.287L14.6986 17.5619" stroke="#C1A1A7" stroke-miterlimit="10"/>
<path d="M8.02127 15.2405L6.37473 18.4867L8.62049 18.4555L9.92314 20.287L11.3039 17.5619" stroke="#C1A1A7" stroke-miterlimit="10"/>
</svg>
