<svg width="78" height="70" viewBox="0 0 78 70" fill="none" xmlns="http://www.w3.org/2000/svg">
<path d="M39.3572 69.1245H39.4822V69.1228C59.6863 69.0568 76.5202 52.9933 77.8391 32.5012L77.8471 32.3764L77.7224 32.3684L77.5221 32.3555L77.3973 32.3474L77.3893 32.4722C76.083 52.7709 59.3758 68.6693 39.3572 68.6693C19.3385 68.6693 2.63132 52.7723 1.32504 32.4751L1.31701 32.3503L1.19226 32.3584L0.991959 32.3713L0.867234 32.3793L0.875258 32.504C1.51342 42.4238 5.79954 51.6505 12.9442 58.4824C20.1202 65.3446 29.5016 69.1245 39.3572 69.1245Z" fill="#602131" stroke="#602131" stroke-width="0.25"/>
<circle cx="1" cy="29" r="1" fill="#602131"/>
<circle cx="77" cy="29" r="1" fill="#602131"/>
<path d="M38.0153 51.1114C37.7473 51.1114 37.4858 51.0234 37.2691 50.8552L31.2621 46.212C30.4711 45.6011 29.7787 44.8732 29.2059 44.0481L24.8662 37.7994C24.5417 37.3317 24.3262 36.7851 24.2434 36.2214C24.0555 34.9378 24.5588 33.6226 25.5573 32.7909C26.3811 32.1051 27.3704 31.6676 28.4307 31.5191C29.0022 31.4377 29.1914 31.3969 29.2532 31.3785L29.4227 31.9724C29.3346 31.9987 29.1454 32.042 28.5174 32.1301C27.5714 32.2628 26.6898 32.6517 25.9659 33.256C25.1198 33.9603 24.6993 35.0587 24.8557 36.1321C24.924 36.6011 25.1027 37.0557 25.3747 37.446L29.7144 43.6947C30.2504 44.4672 30.8995 45.1491 31.6405 45.722L37.6475 50.3652C37.7946 50.4808 37.9838 50.5176 38.1664 50.4742C38.3385 50.4309 38.4712 50.3205 38.5422 50.1641C38.9771 49.1932 39.3542 47.1344 36.98 44.2557L36.2442 43.3229L36.7291 42.9392L37.4609 43.8681C40.0426 46.9977 39.5999 49.3154 39.1058 50.4177C38.9587 50.7462 38.671 50.9853 38.3162 51.0747C38.2164 51.0996 38.1152 51.1114 38.0153 51.1114Z" fill="#602131"/>
<path d="M41.3985 54.316C41.2579 54.316 41.1147 54.2897 40.9807 54.2384L32.434 50.917C30.8049 50.285 29.3294 49.2589 28.1666 47.9529L24.6113 43.9575C24.1646 43.4543 23.8585 42.8407 23.7271 42.1811C23.5786 41.4388 23.6535 40.6754 23.9465 39.9751L24.9161 37.6917L25.485 37.9334L24.5167 40.2156C24.2723 40.8002 24.2093 41.4388 24.3341 42.0602C24.4444 42.6134 24.7007 43.1271 25.0751 43.5475L28.6304 47.543C29.7288 48.7767 31.1215 49.745 32.6587 50.3415L41.2054 53.663C41.3644 53.7247 41.5391 53.7103 41.6863 53.6183C41.8229 53.5329 41.9096 53.3936 41.9241 53.2373C42.0344 51.9668 41.6324 50.1313 39.0861 48.6033L39.4041 48.0738C42.3734 49.8541 42.6428 52.1073 42.5403 53.2898C42.5101 53.6433 42.3169 53.9533 42.0134 54.1425C41.8282 54.2581 41.6153 54.3173 41.3998 54.3173L41.3985 54.316Z" fill="#602131"/>
<path d="M31.6273 53.1059L25.8818 49.7004C25.1198 49.2904 24.5088 48.6519 24.1239 47.8623C23.756 47.1055 23.6246 46.2672 23.7455 45.4382C23.9189 44.2478 24.0529 43.1494 24.0424 42.9918L24.6481 42.8735C24.6888 43.0351 24.5903 43.9286 24.3577 45.5275C24.2539 46.2344 24.3656 46.9491 24.6796 47.5929C25.0081 48.2643 25.5284 48.8083 26.1866 49.163L31.9427 52.5751L31.6273 53.1059Z" fill="#602131"/>
<path d="M41.6941 68.0669C41.6298 67.3627 41.4839 66.5796 41.2487 65.6757C40.8428 64.1174 40.2515 62.5185 39.7312 61.1061C39.4225 60.2691 39.1308 59.4795 38.9311 58.8357C38.4266 57.2091 36.984 56.4826 35.4546 55.7127C34.937 55.4525 34.4022 55.1832 33.9148 54.8784L34.2419 54.3541C34.7044 54.6432 35.2037 54.8954 35.7318 55.1608C37.3085 55.9544 38.939 56.7743 39.521 58.6518C39.7155 59.2798 40.0045 60.0629 40.3107 60.8919C40.8375 62.3174 41.4327 63.9322 41.8466 65.5193C42.0909 66.4574 42.242 67.272 42.309 68.0104L41.6928 68.0669H41.6941Z" fill="#602131"/>
<path d="M38.5199 32.9658L40.1162 24.7515L37.4359 24.2273L36.804 27.6302L35.0499 37.0795" fill="#F7F3EF"/>
<path d="M35.3534 37.1359L34.7464 37.023L37.1889 23.8646L40.4775 24.5084L38.8234 33.0249L38.2164 32.9079L39.7536 24.9959L37.6829 24.5899L35.3534 37.1359Z" fill="#602131"/>
<path d="M33.7269 43.0746L31.6641 53.9166C31.5354 54.4685 31.3711 55.0203 31.0992 55.4998C30.6761 56.2461 29.8484 56.5194 29.0443 56.4314C25.7925 56.0228 23.4315 56.1029 23.3119 56.7125C23.1542 57.5206 26.9907 58.9514 31.8809 59.9092C36.7711 60.867 40.8651 60.9878 41.0228 60.1798C41.1423 59.5728 39.002 58.6124 35.854 57.7663C35.0697 57.5482 34.397 56.9793 34.2853 56.1226C34.1749 55.2725 34.3602 54.3568 34.5231 53.5277L38.0324 35.5883" fill="#F7F3EF"/>
<path d="M38.7577 61.0233C38.5895 61.0233 38.4095 61.0207 38.219 61.0154C36.4755 60.9642 34.2051 60.6778 31.8231 60.2127C31.45 60.1391 22.6681 58.3995 23.0097 56.6534C23.2147 55.6115 26.4244 55.7915 29.0837 56.1252C29.851 56.2093 30.5066 55.9189 30.8311 55.3474C31.1057 54.8626 31.2608 54.2898 31.3646 53.847L33.4247 43.0168L34.0317 43.1324L31.9703 53.9744C31.8546 54.4711 31.6851 55.0978 31.3698 55.6509C30.9205 56.4432 30.0362 56.8478 29.0127 56.7375C25.2617 56.2658 23.7547 56.5667 23.6128 56.7861C23.7061 57.2105 26.5624 58.5519 31.944 59.6056C37.3256 60.6594 40.4762 60.4951 40.7285 60.1049C40.6746 59.8802 39.4015 59.0381 35.7778 58.0632C34.7859 57.7873 34.0987 57.0594 33.9831 56.1607C33.8688 55.2778 34.0527 54.3423 34.2143 53.5159L37.7329 35.5265L38.3399 35.6461L34.8305 53.5855C34.6676 54.4146 34.4942 55.2975 34.5967 56.0819C34.6821 56.7388 35.184 57.2565 35.9407 57.4667C38.5107 58.1578 41.5339 59.1997 41.3302 60.2376C41.2632 60.5818 40.9124 61.022 38.7603 61.022L38.7577 61.0233Z" fill="#602131"/>
<path d="M49.8401 19.7075C49.2213 20.8795 48.1754 21.765 47.0784 22.4706C45.8657 23.2536 44.5584 23.9644 43.2839 24.6568C42.0016 25.3558 40.6575 25.9352 39.2569 26.3622C38.6184 26.5567 37.9286 26.4214 37.3584 25.951L37.0825 25.7263C36.168 24.9866 35.3337 24.1536 34.594 23.2366C33.6034 22.0068 32.547 20.756 31.6352 19.4474C30.885 18.3818 30.2504 17.1665 30.119 15.8474C30.0205 14.9172 30.2438 14.096 30.5776 13.3038C30.7457 12.8846 30.9428 12.4721 31.1412 12.0582C31.2778 11.7573 31.4145 11.4578 31.5367 11.1543C32.1568 9.61575 32.5641 8.01284 32.8361 6.38365C33.1383 4.60336 33.2578 2.7968 33.221 0.99681C33.2171 0.816811 33.3761 0.684111 33.5482 0.718272L42.8228 2.53403C42.8372 2.53666 43.0934 2.58658 43.0934 2.58658L52.368 4.40234C52.5401 4.4365 52.6373 4.61913 52.5664 4.78336C51.8529 6.4362 51.2827 8.15473 50.8912 9.91662C50.5286 11.5287 50.3013 13.1671 50.296 14.8252C50.2934 15.1602 50.3065 15.49 50.3197 15.8198C50.3472 16.277 50.3761 16.7264 50.3735 17.1783C50.384 18.0376 50.2816 18.8824 49.8401 19.7075Z" fill="#F7F3EF"/>
<path d="M38.6854 26.7564C38.1467 26.7564 37.6146 26.562 37.1626 26.1888L36.888 25.9642C35.9552 25.21 35.1025 24.356 34.3536 23.4297L33.7453 22.6795C32.9438 21.6941 32.1161 20.6759 31.3816 19.6248C30.4435 18.2912 29.9298 17.0641 29.8116 15.8777C29.7209 15.0197 29.8694 14.1867 30.2938 13.1842C30.4619 12.7638 30.6616 12.3447 30.8627 11.9256C31.0006 11.6207 31.132 11.333 31.2503 11.04C31.8192 9.62893 32.2383 8.08908 32.5326 6.33376C32.823 4.6218 32.9504 2.82969 32.9123 1.00474C32.9084 0.824737 32.9846 0.655248 33.1212 0.540942C33.2565 0.426636 33.4326 0.381965 33.6086 0.414812L52.4271 4.09888C52.6018 4.13304 52.749 4.24341 52.8304 4.39844C52.9132 4.55611 52.9198 4.74005 52.8488 4.90559C52.1262 6.57945 51.5691 8.28879 51.1921 9.98367C50.8005 11.7219 50.6087 13.3064 50.6048 14.8266C50.6021 15.1577 50.6153 15.4822 50.6271 15.808L50.6324 15.8882C50.6586 16.3231 50.6836 16.7514 50.681 17.181C50.6954 18.2649 50.5194 19.0914 50.1108 19.8534C49.5537 20.9071 48.6156 21.8492 47.2439 22.7321C46.0391 23.5099 44.7397 24.2181 43.4836 24.9026C42.0962 25.6594 40.7219 26.2401 39.3463 26.6592C39.1282 26.7262 38.9048 26.7591 38.6841 26.7591L38.6854 26.7564ZM33.4891 1.02182C33.5692 2.85465 33.4378 4.68618 33.1409 6.43493C32.84 8.23492 32.4091 9.81681 31.8231 11.2699C31.7022 11.5695 31.5682 11.8664 31.4329 12.1634C31.2253 12.5983 31.0308 13.0042 30.8653 13.4181C30.4816 14.326 30.3476 15.0631 30.4265 15.8146C30.5342 16.8933 31.0111 18.0232 31.8875 19.2687C32.6088 20.3041 33.43 21.3131 34.2248 22.288L34.8358 23.0408C35.5558 23.9329 36.3783 24.7554 37.2783 25.4846L37.5555 25.7106C38.0324 26.1034 38.6197 26.2309 39.1689 26.064C40.5038 25.6567 41.8387 25.0918 43.1381 24.3836C44.4375 23.6767 45.7264 22.9738 46.9128 22.2078C48.1938 21.3841 49.0623 20.5182 49.5681 19.5604C49.9255 18.893 50.0779 18.1598 50.0648 17.1797C50.0674 16.7566 50.0424 16.3441 50.0175 15.9223L50.0122 15.8356C49.9991 15.494 49.9846 15.1603 49.9886 14.82C49.9925 13.2552 50.1896 11.6286 50.5903 9.84703C50.9753 8.11404 51.5442 6.36792 52.2826 4.65859L33.4891 1.02182Z" fill="#602131"/>
<path d="M34.7294 1.84828C34.7517 1.85879 36.4545 2.54856 38.0548 2.9782C39.4225 3.34476 40.9978 3.7363 42.6927 4.06739C48.0322 5.11191 52.4836 5.33001 52.6347 4.5522C52.7858 3.7744 48.5814 2.29762 43.2432 1.2531C37.9037 0.208575 33.4523 -0.00821203 33.2999 0.768281C33.2447 1.04813 33.7571 1.41996 34.6834 1.82857C34.7057 1.83776 34.7281 1.84828 34.7504 1.85747" fill="#F7F3EF"/>
<path d="M50.4997 5.32207C47.5395 5.32207 42.9121 4.42602 42.6322 4.37083C41.1923 4.08967 39.6682 3.73098 37.9746 3.27639C36.4466 2.86646 34.8424 2.22792 34.6321 2.14384L34.6229 2.1399C34.6151 2.13727 34.6098 2.13464 34.6098 2.13464L34.5533 2.10836C33.3905 1.59596 32.9084 1.1637 32.9977 0.7091C33.3288 -0.981841 42.8963 0.872019 43.3023 0.95085C43.7096 1.031 53.2693 2.92164 52.9382 4.6139C52.8357 5.13944 51.8372 5.32338 50.4997 5.32338V5.32207ZM34.8476 1.56311C34.8634 1.57099 36.5425 2.25289 38.1349 2.67858C39.8153 3.12923 41.325 3.48398 42.7518 3.76383C48.383 4.86485 51.9988 4.87667 52.3443 4.46281C52.1683 4.01346 48.8153 2.66019 43.1828 1.55654C37.5936 0.463408 33.991 0.445013 33.5994 0.849683C33.6362 0.854938 33.8162 1.10851 34.8095 1.54603L34.6978 1.92311L34.8489 1.56311H34.8476Z" fill="#602131"/>
<path d="M50.2343 15.5203C48.5814 16.0695 44.67 16.4163 40.1201 16.3493C38.2006 16.3204 36.4059 16.2048 34.8397 16.0721C33.9437 15.9959 32.9977 15.854 32.2396 15.7252" fill="#F7F3EF"/>
<path d="M41.2382 16.6673C40.8677 16.6673 40.4933 16.6647 40.1162 16.6594C38.4686 16.6358 36.7343 16.5438 34.8148 16.3822C34.0672 16.3191 33.2079 16.2048 32.1897 16.0327L32.2921 15.4231C33.2933 15.5926 34.1355 15.7043 34.866 15.766C36.7711 15.9276 38.491 16.0183 40.1241 16.0419C44.4546 16.1089 48.4789 15.7791 50.1357 15.2286L50.3302 15.8146C48.7351 16.3454 45.2389 16.6686 41.2369 16.6686L41.2382 16.6673Z" fill="#602131"/>
<path d="M34.8397 15.758C33.9962 15.6858 33.158 15.5636 32.3237 15.423C32.1555 15.3941 31.9847 15.4677 31.9361 15.6437C31.8941 15.7948 31.9873 16.0024 32.1568 16.0313C33.0463 16.1811 33.941 16.3112 34.841 16.3887C35.0105 16.4031 35.1564 16.2336 35.1564 16.0733C35.1564 15.8907 35.0118 15.7725 34.841 15.758H34.8397Z" fill="#602131"/>
<path d="M32.5825 44.2307C32.4787 44.2307 32.3723 44.2176 32.2672 44.19C31.8665 44.0875 31.5393 43.7945 31.3908 43.4083C30.7549 41.7489 29.6355 38.5811 29.0246 36.8403C28.7631 36.0953 28.6869 35.2899 28.8025 34.5095L29.4857 29.907C29.6526 28.7784 30.4711 27.8784 31.5695 27.6156C33.0581 27.2583 34.8069 27.1742 36.7659 27.3673L36.7054 27.9822C34.8135 27.797 33.133 27.8758 31.7127 28.2161C30.8614 28.421 30.2268 29.12 30.0967 29.9977L29.4135 34.6001C29.3123 35.282 29.3793 35.9863 29.6079 36.6353C30.2176 38.3722 31.3357 41.5334 31.9676 43.1862C32.0438 43.3859 32.2133 43.5357 32.4196 43.5896C32.6193 43.6408 32.819 43.5948 32.9727 43.4634C34.2721 42.3585 36.1273 39.7978 33.9529 35.0666L33.9108 34.9759L33.9305 34.8774C33.9305 34.8774 34.577 31.615 34.661 31.1657L35.268 31.28C35.1918 31.6834 34.6637 34.3544 34.5546 34.8997C36.8342 39.9436 34.7964 42.7237 33.3721 43.9351C33.1462 44.1269 32.8689 44.2281 32.5799 44.2281L32.5825 44.2307Z" fill="#602131"/>
<path d="M46.0562 35.2965L44.7042 32.3916C43.6531 30.3472 41.7585 28.898 39.5131 28.425L39.6406 27.8193C42.0686 28.3317 44.1169 29.8992 45.2587 32.1196L46.6159 35.0351L46.0562 35.2952V35.2965Z" fill="#602131"/>
<path d="M55.3255 64.9648L51.7229 51.2297L51.3221 45.8416C51.104 42.867 50.0792 40.008 48.3594 37.5748L47.6092 36.5118C47.1099 35.8063 46.3781 35.3346 45.549 35.1848C43.4258 34.8012 41.074 33.9406 39.4737 33.285C39.2004 33.1746 38.9009 33.2009 38.6512 33.3586C38.4069 33.5136 38.2584 33.7672 38.2426 34.0523C38.1612 35.5685 38.7747 36.8784 39.3042 37.7114C40.0571 38.8939 41.0727 39.6402 42.2263 40.4258C43.28 41.1432 44.4414 42.0248 44.8908 43.4044C45.013 43.7788 45.1062 44.5816 45.034 44.889L44.4322 44.7484C44.4677 44.5987 44.4099 43.9233 44.3035 43.5949C43.9146 42.4006 42.8924 41.6254 41.8781 40.9343C40.668 40.1092 39.5985 39.3222 38.7826 38.0412C37.9536 36.7391 37.5529 35.3478 37.6251 34.0168C37.6514 33.5294 37.905 33.0984 38.3202 32.8343C38.7353 32.5729 39.253 32.5256 39.7076 32.7122C40.9952 33.239 43.4797 34.1811 45.6581 34.5752C46.6474 34.7539 47.5198 35.3149 48.1124 36.1545L48.8626 37.2174C50.6481 39.7426 51.711 42.7093 51.937 45.7956L52.3286 51.1286L55.922 64.8072L55.3242 64.9635L55.3255 64.9648Z" fill="#602131"/>
<path d="M34.5375 35.0245C34.7399 34.0036 34.9422 32.9815 35.1432 31.9593C35.1853 31.7425 35.2286 31.5257 35.2694 31.3089C35.3009 31.1421 35.2234 30.9686 35.0486 30.9213C34.8949 30.8793 34.6926 30.9739 34.661 31.1421C34.4535 32.2431 34.2301 33.3415 34.012 34.4398C33.9844 34.5791 33.9568 34.7184 33.9292 34.8563C33.8504 35.2531 34.4587 35.4226 34.5375 35.0245Z" fill="#602131"/>
<path d="M41.2435 65.6809C41.48 66.5954 41.6823 67.5466 41.769 68.4768C41.7848 68.6463 41.903 68.7921 42.0844 68.7921C42.242 68.7921 42.4155 68.6476 42.3997 68.4768C42.3064 67.4796 42.1028 66.481 41.8518 65.5127C41.7506 65.1199 41.1423 65.2867 41.2435 65.6809Z" fill="#602131"/>
<path d="M54.5661 62.0967C54.7973 62.9599 55.0299 63.8231 55.2611 64.6877C55.2939 64.8112 55.3268 64.9347 55.3609 65.0582C55.4661 65.4497 56.0744 65.2841 55.9693 64.89C55.738 64.0268 55.5055 63.1636 55.2742 62.2991C55.2414 62.1756 55.2085 62.052 55.1744 61.9285C55.0693 61.537 54.461 61.7026 54.5661 62.0967Z" fill="#602131"/>
<path d="M45.0353 44.9035C45.0865 44.6749 45.0655 44.4292 45.0419 44.198C45.0143 43.9365 44.9801 43.6685 44.9 43.4175C44.85 43.2612 44.6792 43.1429 44.5124 43.1968C44.3547 43.248 44.2378 43.4162 44.2917 43.5844C44.3245 43.6869 44.3468 43.7907 44.3665 43.8958C44.3771 43.9549 44.3876 44.0127 44.3954 44.0718C44.3968 44.085 44.4046 44.1402 44.3981 44.085C44.3915 44.0285 44.3981 44.085 44.3994 44.0981C44.4033 44.131 44.4073 44.1651 44.4112 44.198C44.423 44.3149 44.4322 44.4318 44.4349 44.5488C44.4349 44.5961 44.4349 44.6434 44.4322 44.6907C44.4322 44.713 44.4283 44.734 44.427 44.7564C44.4257 44.7879 44.4441 44.6644 44.4336 44.7091C44.4309 44.7183 44.4296 44.7275 44.4283 44.7367C44.3928 44.8969 44.4769 45.0848 44.649 45.1242C44.8093 45.161 44.9985 45.0756 45.0366 44.9035H45.0353Z" fill="#602131"/>
</svg>
