<svg width="78" height="60" viewBox="0 0 78 60" fill="none" xmlns="http://www.w3.org/2000/svg">
<path d="M39.3572 59.1245H39.4822V59.1228C59.6863 59.0568 76.5202 42.9933 77.8391 22.5012L77.8471 22.3764L77.7224 22.3684L77.5221 22.3555L77.3973 22.3474L77.3893 22.4722C76.083 42.7709 59.3758 58.6693 39.3572 58.6693C19.3385 58.6693 2.63132 42.7723 1.32504 22.4751L1.31701 22.3503L1.19226 22.3584L0.991959 22.3713L0.867234 22.3793L0.875258 22.504C1.51342 32.4238 5.79954 41.6505 12.9442 48.4824C20.1202 55.3446 29.5016 59.1245 39.3572 59.1245Z" fill="#602131" stroke="#602131" stroke-width="0.25"/>
<circle cx="1" cy="19" r="1" fill="#602131"/>
<circle cx="77" cy="19" r="1" fill="#602131"/>
<path d="M39.7236 27.5923H39.6736C39.4855 27.5923 39.3095 27.5806 39.1761 27.5483C39.1095 27.5322 39.0502 27.5102 39.0048 27.4796C38.9588 27.4486 38.9237 27.4062 38.9148 27.3502L38.9148 27.3501C38.904 27.2817 38.9348 27.2193 38.9882 27.1655C39.0411 27.112 39.1212 27.0614 39.2245 27.0126C39.4316 26.9149 39.7456 26.8184 40.1628 26.7234M39.7236 27.5923L40.1744 26.772M39.7236 27.5923V27.5903M39.7236 27.5923V27.5903M40.1628 26.7234C40.1629 26.7234 40.1631 26.7233 40.1633 26.7233L40.1744 26.772M40.1628 26.7234C40.1626 26.7234 40.1624 26.7235 40.1623 26.7235L40.1744 26.772M40.1628 26.7234C40.3076 26.687 40.3986 26.5955 40.4189 26.4803M40.1744 26.772C40.3343 26.732 40.4439 26.6277 40.4682 26.4886M40.4189 26.4803C40.4189 26.4804 40.4189 26.4805 40.4189 26.4806L40.4682 26.4886M40.4189 26.4803C40.4189 26.4802 40.419 26.4801 40.419 26.48L40.4682 26.4886M40.4189 26.4803L40.4682 26.4886M40.8403 23.7605L40.8484 23.8098L40.8483 23.8098L40.8403 23.7605ZM40.8403 23.7605L40.791 23.7684L40.791 23.7685L40.8403 23.7605ZM40.0022 23.524L40.0515 23.5154L40.0515 23.5153L40.0022 23.524ZM40.0022 23.524L40.0108 23.5733L40.0109 23.5732L40.0022 23.524ZM39.7236 27.5903C40.3002 27.5843 40.9988 27.4773 41.0519 27.4682C41.5751 27.3862 42.0647 27.2744 42.4297 27.1533C42.4297 27.1533 42.4296 27.1533 42.4296 27.1533L39.7236 27.5903ZM39.6236 27.542V27.5423H39.6736C39.6568 27.5423 39.6401 27.5422 39.6236 27.542ZM40.4153 26.1518L40.4155 26.153L40.4648 26.1443L40.4151 26.1505C40.4152 26.151 40.4152 26.1514 40.4153 26.1518ZM40.6653 26.5214C40.6653 26.5213 40.6653 26.5213 40.6653 26.5212L40.616 26.513L40.6653 26.5217C40.6653 26.5216 40.6653 26.5215 40.6653 26.5214ZM39.2041 27.3086C39.1948 27.3065 39.1866 27.3043 39.1793 27.3022C39.1676 27.2987 39.1594 27.2955 39.1542 27.2929C39.1509 27.2914 39.1497 27.2904 39.1497 27.2904C39.1497 27.2904 39.1506 27.2911 39.1518 27.2926L39.1137 27.325L39.1613 27.3402C39.1604 27.3432 39.1594 27.3448 39.1594 27.3448C39.1594 27.3448 39.1608 27.3428 39.165 27.3387C39.1715 27.3323 39.1824 27.3232 39.1992 27.3119C39.2008 27.3108 39.2024 27.3097 39.2041 27.3086ZM41.3098 26.3547L41.3543 26.332C41.3543 26.3319 41.3543 26.3319 41.3543 26.3319L41.3098 26.3547ZM41.1724 25.8296L41.2218 25.8218L41.2218 25.8218L41.1724 25.8296ZM42.7565 26.7409C42.76 26.7417 42.7634 26.7426 42.7666 26.7434C42.7862 26.7483 42.7998 26.7528 42.8085 26.7563C42.8128 26.758 42.8152 26.7592 42.8162 26.7597C42.8163 26.7597 42.8163 26.7597 42.8163 26.7597C42.8157 26.7592 42.8146 26.7583 42.8133 26.757L42.8486 26.7216L42.8012 26.7058C42.8016 26.7046 42.8019 26.7041 42.8019 26.7041C42.8019 26.7041 42.801 26.7055 42.7984 26.7084C42.7944 26.7128 42.7879 26.7187 42.7781 26.7261C42.7719 26.7307 42.7647 26.7357 42.7565 26.7409ZM41.6765 26.484C41.6764 26.484 41.6763 26.484 41.6762 26.484C41.6761 26.484 41.676 26.484 41.6759 26.484L41.6802 26.5338L41.6765 26.484Z" fill="#602131" stroke="#602131" stroke-width="0.1"/>
<path d="M36.8081 11.6516L36.8021 11.602L36.8021 11.602L36.8021 11.602L36.8022 11.602L36.8027 11.6019L36.8046 11.6017L36.812 11.6008L36.8396 11.5973C36.863 11.5944 36.8956 11.5902 36.9324 11.5853C37.0062 11.5756 37.0964 11.563 37.1633 11.5519L37.1637 11.5518L37.1637 11.5518L40.1353 11.0841L40.1799 11.0771L40.1914 11.1208L40.2088 11.1868L40.2088 11.1869C40.2982 11.5273 40.5327 12.2378 40.7638 12.9379L40.7817 12.9921L36.8081 11.6516ZM36.8081 11.6516L36.8021 11.602L36.8016 11.6021L36.7355 11.6108L36.692 11.6165V11.6603V11.7299C36.692 11.7354 36.6963 11.8669 36.7031 12.0735C36.7258 12.7688 36.7762 14.3142 36.7842 14.7701L36.8342 14.7693C36.8481 15.6108 36.9142 16.5932 37.3002 17.5026L37.335 17.5826C37.361 17.6417 37.3889 17.7008 37.4184 17.7599C37.4602 17.8434 37.5054 17.9269 37.5523 18.0086M36.8081 11.6516L36.7842 14.7701C36.7981 15.6128 36.8642 16.6034 37.2542 17.5221L37.2543 17.5225L37.2891 17.6025L37.2892 17.6028C37.3156 17.6626 37.3438 17.7225 37.3737 17.7823C37.4159 17.8667 37.4616 17.951 37.5089 18.0334L37.5523 18.0086M37.5523 18.0086L37.509 18.0335L37.5228 18.0577L37.5228 18.0577L37.5232 18.0583C37.6671 18.3024 37.8253 18.5239 37.9907 18.7175L37.9908 18.7176C38.2301 18.9955 38.4878 19.2218 38.7591 19.3867L38.7592 19.3868L38.8427 19.4372L38.843 19.4374L38.8481 19.4404C38.9525 19.5025 39.0659 19.57 39.1658 19.6468C39.2654 19.7233 39.3471 19.8059 39.3924 19.8964M37.5523 18.0086L37.5662 18.0329C37.7088 18.2746 37.8653 18.4937 38.0287 18.685C38.2652 18.9597 38.5191 19.1823 38.7851 19.344L38.8686 19.3944L38.8747 19.3981C39.0841 19.5226 39.3425 19.6764 39.4406 19.8812M39.4406 19.8812L39.3912 19.8889L39.3924 19.8964M39.4406 19.8812L39.3955 19.9028C39.3945 19.9007 39.3934 19.8985 39.3924 19.8964M39.4406 19.8812L39.9981 23.485L39.9971 23.4852L40.0057 23.5344L40.0551 23.5268L40.055 23.5258L40.1553 23.5083L39.5884 19.8447L39.5832 19.8256C39.4667 19.5717 39.1781 19.3996 38.9468 19.2622M39.3924 19.8964L39.9563 23.5421L39.9641 23.5924L40.0143 23.5837L40.1638 23.5576L40.2122 23.5492L40.2047 23.5007L39.6378 19.8371L39.6381 19.837L39.6367 19.8316L39.6314 19.8125L39.6321 19.8123L39.6286 19.8048C39.5658 19.6678 39.4578 19.5555 39.3392 19.4611C39.2205 19.3668 39.0877 19.2878 38.9725 19.2193L38.9727 19.2194L38.9468 19.2622M38.9468 19.2622L38.9723 19.2193L38.8892 19.169L38.8892 19.169C38.6407 19.0193 38.4031 18.811 38.1816 18.5517M38.9468 19.2622L38.8633 19.2118C38.6095 19.0588 38.3678 18.8467 38.1435 18.5841M38.1435 18.5841L38.1816 18.5517M38.1435 18.5841L38.1815 18.5516C38.1815 18.5517 38.1816 18.5517 38.1816 18.5517M38.1435 18.5841C37.9906 18.4044 37.8442 18.2002 37.709 17.9765L37.7207 17.9629L37.7433 17.9365M38.1816 18.5517C38.0274 18.3704 37.8796 18.1637 37.7433 17.9365M37.7433 17.9365C37.7415 17.9334 37.7396 17.9304 37.7378 17.9273L37.725 17.9059L37.7122 17.8845L37.6706 17.9092L40.7817 12.9922C40.9919 13.6261 41.189 14.2277 41.2624 14.5007L41.2625 14.5008C41.4576 15.2324 41.6918 16.3397 41.4403 17.4407L41.4402 17.4408C41.2842 18.1193 41.0275 18.6734 40.673 19.0845L40.6727 19.0849L40.6084 19.1579L40.6083 19.1579L40.604 19.1629C40.5239 19.2542 40.437 19.3532 40.3658 19.4568C40.2947 19.5603 40.2423 19.664 40.2267 19.7643L40.9157 23.9262L40.9239 23.9756L40.8744 23.9837L40.7249 24.008L40.6669 24.0175V23.961L39.9738 19.7747L39.9724 19.7665H39.9731V19.7561V19.7501L39.9735 19.7501C39.9913 19.6009 40.0598 19.4611 40.1439 19.3349C40.2255 19.2123 40.3243 19.099 40.4108 18.9999L40.4184 18.9912L40.4185 18.991L40.4826 18.9183C40.4826 18.9182 40.4827 18.9182 40.4827 18.9181C40.808 18.5417 41.0485 18.0265 41.195 17.3837L41.195 17.3836C41.4338 16.3408 41.2107 15.2781 41.0198 14.5648C40.9529 14.3152 40.7729 13.7692 40.5769 13.175C40.5655 13.1403 40.554 13.1055 40.5425 13.0705L40.5425 13.0705C40.5295 13.0311 40.5166 12.9918 40.5036 12.9523C40.3018 12.3393 40.0988 11.7225 39.9957 11.3602L37.2019 11.8001L37.2017 11.8002C37.1265 11.8117 37.024 11.8257 36.9466 11.836C36.9634 12.3256 37.027 14.2433 37.0355 14.765M37.7433 17.9365L37.7437 17.936L37.726 17.9053C37.6812 17.8278 37.6383 17.7489 37.599 17.6684L37.599 17.6684L37.5985 17.6675C37.5697 17.6115 37.5441 17.5554 37.518 17.498M37.518 17.498L37.4853 17.4222L37.4393 17.4417M37.518 17.498C37.518 17.4979 37.5179 17.4977 37.5178 17.4976L37.4723 17.5183M37.518 17.498L37.5182 17.4984L37.4723 17.5183M37.4393 17.4417L37.4852 17.4219L37.4853 17.4221C37.1137 16.5465 37.0494 15.5915 37.0355 14.765M37.4393 17.4417L37.4723 17.5183M37.4393 17.4417L37.4723 17.5183M37.0355 14.765C37.0355 14.765 37.0355 14.765 37.0355 14.7649L36.9855 14.7658L37.0355 14.765Z" fill="#602131" stroke="#602131" stroke-width="0.1"/>
<mask id="path-6-outside-1_698_2277" maskUnits="userSpaceOnUse" x="35.8059" y="10.0739" width="5" height="2" fill="black">
<rect fill="white" x="35.8059" y="10.0739" width="5" height="2"/>
<path d="M39.2807 11.5525C39.0494 11.6099 38.7799 11.6656 38.4912 11.7108C37.5836 11.8534 36.829 11.8499 36.8064 11.7038C36.7838 11.5578 37.5001 11.323 38.4078 11.1787C39.3154 11.0361 40.0701 11.0396 40.0927 11.1857C40.1014 11.2396 40.0092 11.3056 39.844 11.3752"/>
</mask>
<path d="M39.2807 11.5525C39.0494 11.6099 38.7799 11.6656 38.4912 11.7108C37.5836 11.8534 36.829 11.8499 36.8064 11.7038C36.7838 11.5578 37.5001 11.323 38.4078 11.1787C39.3154 11.0361 40.0701 11.0396 40.0927 11.1857C40.1014 11.2396 40.0092 11.3056 39.844 11.3752" fill="#EFEAE4"/>
<path d="M38.4912 11.7108L38.4758 11.612L38.4757 11.612L38.4912 11.7108ZM38.4078 11.1787L38.3923 11.0799L38.3921 11.08L38.4078 11.1787ZM40.0927 11.1857L39.9938 11.201L39.9939 11.2016L40.0927 11.1857ZM39.2566 11.4555C39.0282 11.5122 38.7615 11.5672 38.4758 11.612L38.5067 11.8096C38.7983 11.7639 39.0706 11.7077 39.3047 11.6496L39.2566 11.4555ZM38.4757 11.612C38.0255 11.6827 37.6155 11.7168 37.3174 11.7155C37.1675 11.7149 37.0505 11.7053 36.9722 11.6887C36.9325 11.6803 36.9089 11.6714 36.897 11.6647C36.8833 11.657 36.9011 11.6621 36.9052 11.6885L36.7076 11.7191C36.7173 11.7821 36.7637 11.8192 36.7991 11.8391C36.8364 11.86 36.8825 11.8742 36.9308 11.8844C37.0288 11.9051 37.1614 11.9149 37.3165 11.9155C37.6282 11.9169 38.0493 11.8814 38.5068 11.8096L38.4757 11.612ZM36.9052 11.6885C36.9093 11.7148 36.894 11.7249 36.9048 11.7133C36.9141 11.7032 36.9339 11.6874 36.9692 11.6672C37.0386 11.6274 37.147 11.5823 37.2894 11.5356C37.5727 11.4428 37.9732 11.3491 38.4235 11.2775L38.3921 11.08C37.9347 11.1527 37.5232 11.2485 37.2271 11.3456C37.0798 11.3939 36.9565 11.4439 36.8697 11.4937C36.8268 11.5183 36.7873 11.5459 36.7582 11.5772C36.7306 11.6069 36.6978 11.6563 36.7076 11.7191L36.9052 11.6885ZM38.4233 11.2775C38.8735 11.2068 39.2835 11.1727 39.5817 11.1739C39.7316 11.1746 39.8485 11.1842 39.9268 11.2007C39.9665 11.2091 39.9902 11.2181 40.002 11.2248C40.0158 11.2325 39.9979 11.2274 39.9938 11.201L40.1915 11.1704C40.1817 11.1074 40.1354 11.0703 40.1 11.0504C40.0627 11.0295 40.0166 11.0153 39.9682 11.0051C39.8703 10.9844 39.7376 10.9746 39.5825 10.9739C39.2708 10.9726 38.8497 11.0081 38.3923 11.0799L38.4233 11.2775ZM39.9939 11.2016C39.9908 11.1822 39.9987 11.171 39.9977 11.1724C39.9964 11.1744 39.9901 11.1821 39.9735 11.1946C39.9406 11.2193 39.885 11.2494 39.8052 11.283L39.8828 11.4674C39.9682 11.4314 40.0413 11.3938 40.0935 11.3546C40.1196 11.335 40.145 11.3118 40.1637 11.2841C40.1827 11.2558 40.1989 11.2161 40.1914 11.1697L39.9939 11.2016Z" fill="#602131" mask="url(#path-6-outside-1_698_2277)"/>
<path d="M36.7316 11.716L36.6822 11.7235C36.6863 11.7505 36.6964 11.7805 36.7202 11.809C36.7436 11.837 36.7775 11.8604 36.8243 11.8795C36.9163 11.9169 37.0672 11.9407 37.3157 11.9416H37.3158H37.3214L37.3249 11.9433H37.3367C37.66 11.9433 38.0766 11.9047 38.5129 11.8367L38.5129 11.8367L38.5132 11.8366C38.7923 11.7913 39.0685 11.7371 39.312 11.6758L39.3604 11.6636L39.3483 11.6152L39.3118 11.4691L39.2996 11.4206L39.2511 11.4327C39.0163 11.4915 38.7465 11.5451 38.473 11.5884L38.4808 11.6377L38.4731 11.5883C38.0359 11.6567 37.6701 11.6865 37.3998 11.691C37.2645 11.6933 37.1539 11.6892 37.0706 11.6807C37.0481 11.6784 37.0278 11.6758 37.0097 11.6729C37.026 11.6646 37.0445 11.6558 37.0652 11.6467C37.1418 11.6129 37.2457 11.575 37.375 11.5356C37.6334 11.4568 37.9906 11.373 38.4277 11.3046L38.4277 11.3046C38.8623 11.2362 39.2269 11.206 39.497 11.2011C39.6321 11.1986 39.7429 11.2025 39.8266 11.2108C39.8494 11.2131 39.8697 11.2157 39.8876 11.2184C39.8634 11.2309 39.8331 11.2452 39.795 11.2613L39.7493 11.2806L39.7682 11.3264L39.8256 11.4655L39.8448 11.5121L39.8912 11.4926C40.0022 11.4459 40.0865 11.3993 40.1414 11.3491C40.1978 11.2975 40.2281 11.237 40.2168 11.1673M36.7316 11.716L36.6822 11.7238C36.6723 11.6607 36.7019 11.6056 36.7451 11.5612C36.7882 11.5169 36.8504 11.4768 36.9224 11.4405C37.0669 11.3676 37.264 11.3032 37.4652 11.2491C37.8684 11.1406 38.2996 11.0703 38.3878 11.0563C38.4761 11.0423 38.9081 10.9768 39.3254 10.9562C39.5335 10.9459 39.741 10.9467 39.901 10.9717C39.9807 10.9841 40.0522 11.0031 40.1069 11.0321C40.1617 11.0611 40.2068 11.1043 40.2168 11.1673M36.7316 11.716C36.7438 11.796 36.822 11.8899 37.3158 11.8916L36.7316 11.716ZM40.2168 11.1673C40.2168 11.1673 40.2168 11.1672 40.2168 11.1672L40.1674 11.1752L40.2168 11.1674C40.2168 11.1674 40.2168 11.1673 40.2168 11.1673Z" fill="#602131" stroke="#602131" stroke-width="0.1"/>
<path d="M38.0672 18.8181L38.0647 18.8206L38.0295 18.7807C37.9748 18.7188 37.9956 18.6427 38.0368 18.6014C38.0577 18.5806 38.0867 18.5648 38.1198 18.5632C38.1544 18.5615 38.188 18.5756 38.2139 18.6048M38.0672 18.8181L38.0466 18.6973C38.0455 18.6346 38.1245 18.5792 38.1765 18.6381C38.5834 19.0919 39.185 19.3353 39.7936 19.2101M38.0672 18.8181L38.1023 18.783L38.1026 18.7827C38.538 19.2454 39.1633 19.4818 39.7953 19.3666M38.0672 18.8181L41.1656 18.2836M38.0672 18.8181C38.513 19.2911 39.1545 19.5343 39.8043 19.4158M38.0672 18.8181L39.8043 19.4158M38.2139 18.6048C38.2139 18.6049 38.214 18.6049 38.214 18.605L38.1765 18.6381L38.2138 18.6047C38.2138 18.6047 38.2138 18.6048 38.2139 18.6048ZM38.2139 18.6048C38.6107 19.0473 39.1949 19.2822 39.7835 19.1612M39.7835 19.1612C39.7835 19.1612 39.7834 19.1612 39.7834 19.1612L39.7936 19.2101M39.7835 19.1612C40.3239 19.0487 40.7144 18.6607 40.9409 18.1635L40.941 18.1633C40.9574 18.1277 40.9858 18.1044 41.0202 18.097C41.0528 18.09 41.0849 18.0983 41.1101 18.1132C41.1594 18.1423 41.2001 18.2099 41.1656 18.2836M39.7835 19.1612C39.7835 19.1612 39.7835 19.1612 39.7835 19.1612L39.7936 19.2101M39.7936 19.2101C40.3535 19.0936 40.7551 18.692 40.9864 18.1842C41.0281 18.0938 41.162 18.1738 41.1203 18.2625M41.1656 18.2836C40.9067 18.8474 40.4361 19.3009 39.8043 19.4158M41.1656 18.2836C41.1656 18.2836 41.1655 18.2837 41.1655 18.2838L41.1203 18.2625M41.1656 18.2836C41.1656 18.2835 41.1657 18.2834 41.1657 18.2834L41.1203 18.2625M41.1656 18.2836L39.8043 19.4158M41.1203 18.2625C40.8664 18.8154 40.4074 19.2553 39.7953 19.3666M39.7953 19.3666L39.8043 19.4158C39.8043 19.4158 39.8043 19.4158 39.8043 19.4158M39.7953 19.3666L39.8043 19.4158" fill="#602131" stroke="#602131" stroke-width="0.1"/>
<path d="M36.8998 15.4035L36.8906 15.4529L39.0911 15.4874L39.0938 15.5373C39.0939 15.5373 39.0939 15.5373 39.0939 15.5373C39.9631 15.4903 40.7796 15.3753 41.2771 15.2276L41.3252 15.2133L41.3107 15.1652L41.2673 15.0209L41.2529 14.9733L41.2052 14.9874C40.7291 15.1283 39.9355 15.2394 39.0797 15.2862C38.2469 15.3313 37.4845 15.3051 36.9858 15.2139L36.9367 15.205L36.9276 15.254L36.8998 15.4035Z" fill="#602131" stroke="#602131" stroke-width="0.1"/>
<path d="M39.8649 11.4482L39.8856 11.4938C39.8442 11.5125 39.8028 11.4957 39.7834 11.486C39.7513 11.47 39.7317 11.4402 39.7233 11.4111C39.7119 11.3776 39.7175 11.3382 39.7357 11.3103C39.7511 11.2851 39.773 11.2711 39.7899 11.2616L39.7898 11.2613C39.7908 11.2609 39.7917 11.2605 39.7926 11.2602C39.7941 11.2593 39.7955 11.2585 39.7969 11.2578C39.7977 11.2574 39.7985 11.257 39.7992 11.2565L39.8104 11.2504H39.8152C39.8688 11.227 39.9192 11.2014 39.9634 11.1688C39.9634 11.1688 39.9634 11.1688 39.9634 11.1688C39.9661 11.1666 39.9685 11.1644 39.9708 11.1622C39.9727 11.1494 39.9768 11.136 39.984 11.1225C40.0002 11.0909 40.0297 11.0715 40.0585 11.0632C40.0914 11.052 40.13 11.0573 40.1579 11.0747C40.1717 11.0822 40.1841 11.0936 40.1933 11.105C40.2022 11.1159 40.2135 11.1332 40.2167 11.1543C40.2231 11.1831 40.2229 11.206 40.2161 11.2352L40.2159 11.2361L40.2159 11.2361C40.2108 11.2567 40.2011 11.2754 40.1935 11.2887L40.1927 11.29L40.1927 11.29C40.1686 11.3295 40.1381 11.3549 40.1087 11.377L40.0787 11.337M39.8649 11.4482C39.8694 11.4463 39.8739 11.4444 39.8784 11.4424C39.9473 11.413 40.0184 11.3826 40.0787 11.337M39.8649 11.4482L39.8846 11.4942C39.8894 11.4921 39.8943 11.49 39.8992 11.4879C39.967 11.459 40.0435 11.4264 40.1089 11.3768L40.0787 11.337M39.8649 11.4482C39.8458 11.4569 39.8232 11.45 39.8058 11.4413C39.7884 11.4326 39.7762 11.4152 39.771 11.3961C39.764 11.377 39.7675 11.3526 39.7779 11.337C39.7851 11.3251 39.7947 11.3172 39.8061 11.3101L40.0787 11.337M40.0787 11.337C40.1066 11.3161 40.1309 11.2952 40.15 11.2639L40.0787 11.337Z" fill="#602131" stroke="#602131" stroke-width="0.1"/>
<path d="M39.3098 11.432V11.4157L39.2478 11.431C38.9885 11.495 38.7273 11.5468 38.4626 11.5884L38.4626 11.5884L38.4622 11.5884C38.4223 11.5951 38.3945 11.6221 38.3796 11.6506C38.3648 11.6789 38.3594 11.714 38.3682 11.7466L38.3682 11.7466L38.3683 11.7469C38.3894 11.8221 38.4615 11.8464 38.5203 11.8366L38.5121 11.7873M39.3098 11.432L39.3007 11.4813C39.3663 11.4998 39.3823 11.6085 39.3015 11.6291C39.0407 11.6934 38.7764 11.7456 38.5121 11.7873M39.3098 11.432C39.3239 11.4354 39.3371 11.4413 39.3489 11.4493C39.3759 11.4676 39.3934 11.4952 39.4012 11.5236C39.4091 11.552 39.4083 11.5847 39.394 11.6141C39.3792 11.6447 39.3515 11.6679 39.3138 11.6775L39.3135 11.6776L39.3135 11.6776C39.0512 11.7423 38.7855 11.7948 38.5199 11.8367L38.5121 11.7873M39.3098 11.432L38.4704 11.6378C38.4287 11.6447 38.406 11.6951 38.4165 11.7334C38.4287 11.7769 38.4704 11.7943 38.5121 11.7873" fill="#602131" stroke="#602131" stroke-width="0.1"/>
<path d="M35.5074 16.2179L35.5074 16.2179L35.5077 16.2187C35.5752 16.3575 35.7195 16.4485 35.8744 16.4485H35.8761C36.1002 16.4485 36.2826 16.2662 36.2826 16.0421C36.2826 15.818 36.1002 15.6356 35.8761 15.6356C35.8228 15.6356 35.7713 15.6455 35.7219 15.6653L35.675 15.684L35.6943 15.7308L35.7517 15.8699L35.7705 15.9156L35.8165 15.8972C35.9143 15.8581 36.0313 15.9369 36.0313 16.0421C36.0313 16.1275 35.9615 16.1972 35.8761 16.1972C35.8155 16.1972 35.7615 16.1631 35.735 16.1088L35.735 16.1088L35.7348 16.1084C35.7244 16.0875 35.7192 16.0656 35.7192 16.0421V15.9921H35.6692H35.5179H35.4679V16.0421C35.4679 16.1036 35.4819 16.1629 35.5074 16.2179Z" fill="#602131" stroke="#602131" stroke-width="0.1"/>
<path d="M35.5465 16.2649C35.5588 16.274 35.5738 16.2817 35.5893 16.2854C35.6181 16.2929 35.6577 16.2918 35.6883 16.2715C35.7077 16.2585 35.7373 16.2329 35.7445 16.1936L35.7453 16.1938V16.1849C35.7453 16.1847 35.7454 16.1843 35.7455 16.1834L35.7473 16.1759L35.7488 16.1763V16.1638C35.7488 16.1405 35.7427 16.1199 35.7318 16.1007L35.7263 16.0912C35.7249 16.0864 35.7237 16.0815 35.7227 16.0762C35.7225 16.07 35.7221 16.0642 35.7218 16.0595C35.7218 16.0591 35.7217 16.0588 35.7217 16.0584C35.7213 16.052 35.721 16.0471 35.721 16.0421C35.721 16.0094 35.7068 15.9759 35.6837 15.9528C35.6606 15.9297 35.6271 15.9156 35.5945 15.9156C35.5645 15.9156 35.5287 15.9263 35.5032 15.955C35.4837 15.9769 35.4679 16.0056 35.4679 16.0421C35.4679 16.0741 35.472 16.106 35.4799 16.1377L35.4799 16.1377L35.4801 16.1384C35.4875 16.1663 35.4972 16.1959 35.5115 16.2244C35.5203 16.2421 35.5339 16.2556 35.5465 16.2649Z" fill="#602131" stroke="#602131" stroke-width="0.1"/>
<path d="M35.7877 15.6453C35.7688 15.6492 35.75 15.6547 35.7314 15.6618C35.7142 15.6659 35.6999 15.6743 35.6888 15.6843C35.6763 15.6927 35.6637 15.705 35.6558 15.7222C35.6488 15.7348 35.6429 15.7509 35.642 15.7679C35.6399 15.7826 35.6401 15.7974 35.6425 15.8121L35.6423 15.8121L35.6436 15.817C35.6517 15.8467 35.6714 15.8774 35.7042 15.8938L35.7037 15.8949L35.7139 15.8974C35.7142 15.8975 35.715 15.8978 35.7165 15.8985C35.7166 15.8986 35.7168 15.8986 35.717 15.8987C35.7199 15.9 35.7261 15.9026 35.7336 15.9045C35.7555 15.91 35.7777 15.91 35.7996 15.9045L35.7997 15.9049L35.8054 15.9027C35.8189 15.8975 35.8317 15.8932 35.8444 15.8902C35.8492 15.89 35.8537 15.8897 35.8574 15.8894L35.858 15.8894C35.8643 15.8889 35.8687 15.8886 35.8727 15.8886C35.9053 15.8886 35.9388 15.8745 35.9619 15.8514C35.9735 15.8398 35.9817 15.8263 35.9872 15.8136C35.9971 15.7953 35.9992 15.7764 35.9992 15.7621C35.9992 15.7322 35.9885 15.6963 35.9598 15.6708C35.9378 15.6513 35.9091 15.6356 35.8727 15.6356C35.844 15.6356 35.8144 15.6396 35.7877 15.6453ZM35.7877 15.6453C35.7879 15.6453 35.788 15.6453 35.7881 15.6453L35.7979 15.6943L35.7874 15.6454C35.7875 15.6454 35.7876 15.6454 35.7877 15.6453Z" fill="#602131" stroke="#602131" stroke-width="0.1"/>
<path d="M41.8052 19.4833L41.8052 19.4833L41.8056 19.4841C41.8699 19.6165 42.0042 19.7054 42.1509 19.7133L42.1533 19.7157H42.174C42.3981 19.7157 42.5804 19.5333 42.5804 19.3092C42.5804 19.0851 42.3981 18.9028 42.174 18.9028C42.1207 18.9028 42.0692 18.9127 42.0198 18.9324L41.9728 18.9512L41.9921 18.9979L42.0495 19.137L42.0688 19.1839L42.1154 19.1639C42.1332 19.1563 42.1526 19.1523 42.174 19.1523C42.2594 19.1523 42.3291 19.2221 42.3291 19.3075C42.3291 19.3929 42.2594 19.4626 42.174 19.4626C42.1133 19.4626 42.0593 19.4285 42.0329 19.3742L42.0329 19.3742L42.0326 19.3738C42.0222 19.353 42.0171 19.3311 42.0171 19.3075V19.2575H41.9671H41.8158H41.7658V19.3075C41.7658 19.369 41.7797 19.4284 41.8052 19.4833Z" fill="#602131" stroke="#602131" stroke-width="0.1"/>
<path d="M41.8444 19.5286C41.8567 19.5376 41.8716 19.5454 41.8872 19.549C41.9159 19.5566 41.9555 19.5555 41.9861 19.5351C42.0055 19.5222 42.0352 19.4966 42.0423 19.4573L42.0431 19.4574V19.4486C42.0432 19.4484 42.0432 19.448 42.0434 19.4471L42.0451 19.4396L42.0466 19.44V19.4275C42.0466 19.4042 42.0405 19.3835 42.0296 19.3644L42.0241 19.3548C42.0228 19.3501 42.0216 19.3451 42.0205 19.3399C42.0203 19.3337 42.0199 19.3279 42.0196 19.3231C42.0196 19.3228 42.0196 19.3224 42.0195 19.3221C42.0191 19.3157 42.0188 19.3108 42.0188 19.3058C42.0188 19.2731 42.0046 19.2396 41.9815 19.2165C41.9584 19.1934 41.9249 19.1792 41.8923 19.1792C41.8624 19.1792 41.8265 19.1899 41.801 19.2186C41.7815 19.2406 41.7658 19.2693 41.7658 19.3058C41.7658 19.3378 41.7698 19.3697 41.7777 19.4013L41.7777 19.4013L41.7779 19.4021C41.7853 19.43 41.7951 19.4596 41.8093 19.4881C41.8181 19.5057 41.8317 19.5192 41.8444 19.5286Z" fill="#602131" stroke="#602131" stroke-width="0.1"/>
<path d="M42.0856 18.909C42.0666 18.9128 42.0478 18.9184 42.0293 18.9255C42.012 18.9296 41.9978 18.938 41.9866 18.9479C41.9741 18.9564 41.9615 18.9687 41.9536 18.9859C41.9466 18.9985 41.9407 19.0146 41.9398 19.0316C41.9377 19.0463 41.9379 19.0611 41.9403 19.0757L41.9401 19.0758L41.9414 19.0807C41.9495 19.1103 41.9693 19.141 42.0021 19.1574L42.0015 19.1585L42.0118 19.1611C42.012 19.1612 42.0128 19.1615 42.0143 19.1622C42.0145 19.1622 42.0146 19.1623 42.0148 19.1624C42.0177 19.1636 42.024 19.1663 42.0314 19.1682C42.0533 19.1737 42.0755 19.1737 42.0974 19.1682L42.0975 19.1686L42.1032 19.1663C42.1168 19.1611 42.1296 19.1569 42.1422 19.1539C42.1471 19.1537 42.1515 19.1533 42.1552 19.1531L42.1558 19.153C42.1622 19.1526 42.1665 19.1523 42.1705 19.1523C42.2031 19.1523 42.2367 19.1381 42.2598 19.115C42.2714 19.1034 42.2796 19.09 42.2851 19.0773C42.2949 19.059 42.297 19.04 42.297 19.0258C42.297 18.9959 42.2863 18.96 42.2576 18.9345C42.2357 18.915 42.207 18.8993 42.1705 18.8993C42.1418 18.8993 42.1123 18.9033 42.0856 18.909ZM42.0856 18.909C42.0857 18.909 42.0858 18.909 42.0859 18.9089L42.0957 18.958L42.0853 18.9091C42.0854 18.9091 42.0855 18.909 42.0856 18.909Z" fill="#602131" stroke="#602131" stroke-width="0.1"/>
<path d="M34.7069 17.5352L34.7069 17.5352L34.7064 17.5338C34.6843 17.4673 34.5902 17.4673 34.5681 17.5338L34.5681 17.5338L34.5676 17.5352L34.505 17.7439C34.4734 17.8495 34.3903 17.9325 34.2847 17.9642L34.076 18.0268L34.076 18.0268L34.0746 18.0273C34.0082 18.0494 34.0082 18.1434 34.0746 18.1656L34.0746 18.1656L34.076 18.1661L34.2847 18.2287C34.3903 18.2603 34.4734 18.3434 34.505 18.449L34.5676 18.6576L34.5676 18.6576L34.5681 18.6591C34.5902 18.7255 34.6843 18.7255 34.7064 18.6591L34.7065 18.6591L34.7069 18.6576L34.7695 18.449C34.8012 18.3434 34.8842 18.2603 34.9898 18.2287L35.1985 18.1661L35.1985 18.1661L35.1999 18.1656C35.2664 18.1434 35.2664 18.0494 35.1999 18.0273L35.1999 18.0272L35.1985 18.0268L34.9898 17.9642C34.8842 17.9325 34.8012 17.8495 34.7695 17.7439L34.7069 17.5352Z" fill="#EFEAE4" stroke="#602131" stroke-width="0.1"/>
<path d="M34.8408 17.7212L34.8408 17.7213C34.8654 17.8039 34.9291 17.8663 35.0108 17.8912C35.0108 17.8912 35.0108 17.8912 35.0108 17.8912L35.219 17.9536C35.219 17.9537 35.2191 17.9537 35.2192 17.9537L35.2193 17.9537L35.205 18.0016C35.2467 18.0138 35.2745 18.0521 35.2745 18.0955C35.2745 18.139 35.2467 18.1773 35.205 18.1894L34.8408 17.7212ZM34.8408 17.7212L34.7782 17.5127L34.8408 17.7212ZM34.6664 18.3706C34.7123 18.2568 34.8022 18.168 34.9161 18.1222C34.8948 18.1146 34.8743 18.1056 34.8546 18.0954M34.6664 18.3706L34.363 18.0686C34.4772 18.0218 34.5673 17.9328 34.6133 17.8189C34.621 17.84 34.63 17.8604 34.6402 17.88M34.6664 18.3706C34.6587 18.3496 34.6496 18.3293 34.6394 18.3097M34.6664 18.3706L34.6394 18.3097M34.8546 18.0954C34.8744 18.0853 34.8949 18.0763 34.9162 18.0688C34.8025 18.0228 34.7135 17.9327 34.6668 17.8187C34.6592 17.8399 34.6503 17.8604 34.6402 17.88M34.8546 18.0954C34.7624 18.0476 34.688 17.9723 34.6402 17.88M34.8546 18.0954C34.7622 18.1428 34.687 18.2174 34.6394 18.3097M34.6402 17.88C34.5923 17.9726 34.5169 18.0472 34.4244 18.0952C34.5168 18.143 34.5913 18.2181 34.6394 18.3097M35.0126 18.2999L35.2192 18.2373L34.5442 18.6641C34.5564 18.7058 34.5947 18.7337 34.6381 18.7337C34.6816 18.7337 34.7199 18.7058 34.732 18.6641L34.7799 18.6785L34.78 18.6783C34.78 18.6782 34.78 18.6782 34.78 18.6781L34.8425 18.47C34.8425 18.47 34.8425 18.4699 34.8425 18.4699C34.8672 18.3885 34.9312 18.3246 35.0126 18.2999ZM34.4946 17.5127L34.4321 17.7211L34.5425 17.527L34.4946 17.5126L34.4946 17.5127Z" fill="#602131" stroke="#602131" stroke-width="0.1"/>
<path d="M41.7528 12.3514L41.7528 12.3514C41.8354 12.3268 41.8978 12.2631 41.9227 12.1814C41.9227 12.1814 41.9227 12.1814 41.9227 12.1813L41.9852 11.973L41.9852 11.9728L42.0331 11.9872L41.7528 12.3514ZM41.7528 12.3514L41.7526 12.3514M41.7528 12.3514L41.7526 12.3514M41.7526 12.3514L41.5459 12.414L41.7526 12.3514ZM42.3314 12.1815L42.3314 12.1816C42.3561 12.2642 42.4197 12.3266 42.5014 12.3514C42.5014 12.3514 42.5014 12.3515 42.5015 12.3515L42.7096 12.4139C42.7097 12.4139 42.7097 12.4139 42.7098 12.414L42.71 12.414L42.6956 12.4619C42.7373 12.4741 42.7652 12.5123 42.7652 12.5558C42.7652 12.5993 42.7373 12.6375 42.6956 12.6497L42.3314 12.1815ZM42.3314 12.1815L42.2689 11.973L42.3314 12.1815ZM42.1571 12.8308C42.2029 12.7171 42.2928 12.6282 42.4067 12.5825C42.3855 12.5749 42.3649 12.5659 42.3452 12.5557M42.1571 12.8308L41.8537 12.5289C41.9678 12.4821 42.058 12.393 42.1039 12.2791C42.1116 12.3002 42.1206 12.3206 42.1308 12.3403M42.1571 12.8308C42.1493 12.8099 42.1403 12.7896 42.13 12.77M42.1571 12.8308L42.13 12.77M42.3452 12.5557C42.365 12.5455 42.3856 12.5366 42.4068 12.529C42.2931 12.4831 42.2042 12.393 42.1574 12.279C42.1499 12.3002 42.141 12.3206 42.1308 12.3403M42.3452 12.5557C42.2531 12.5078 42.1787 12.4325 42.1308 12.3403M42.3452 12.5557C42.2529 12.6031 42.1777 12.6776 42.13 12.77M42.1308 12.3403C42.083 12.4328 42.0075 12.5075 41.915 12.5555C42.0074 12.6032 42.082 12.6784 42.13 12.77M42.5032 12.7601L42.7099 12.6976L42.0349 13.1244C42.047 13.1661 42.0853 13.1939 42.1288 13.1939C42.1722 13.1939 42.2105 13.1661 42.2227 13.1244L42.2705 13.1387L42.2706 13.1386C42.2706 13.1385 42.2706 13.1384 42.2707 13.1384L42.3331 12.9302C42.3331 12.9302 42.3331 12.9302 42.3331 12.9302C42.3578 12.8488 42.4218 12.7848 42.5032 12.7601Z" fill="#602131" stroke="#602131" stroke-width="0.1"/>
<path d="M15.6827 50.5V7.97337C15.6827 4.12151 18.8042 1 22.6561 1H55.9437C59.7943 1 62.9171 4.12151 62.9171 7.97337V50.5" stroke="#602131" stroke-width="0.5" stroke-miterlimit="10"/>
<path d="M15.6827 8.1582H62.9158" stroke="#602131" stroke-width="0.5" stroke-miterlimit="10"/>
<path d="M43.1989 3.87427H35.4009C35.0651 3.87427 34.7929 4.14647 34.7929 4.48225C34.7929 4.81804 35.0651 5.09024 35.4009 5.09024H43.1989C43.5347 5.09024 43.8069 4.81804 43.8069 4.48225C43.8069 4.14647 43.5347 3.87427 43.1989 3.87427Z" fill="#F7F3EF" stroke="#602131" stroke-width="0.5" stroke-miterlimit="10"/>
<path d="M55.8341 31.3386H22.7657V35.8087H55.8341V31.3386Z" fill="#F7F3EF" stroke="#602131" stroke-width="0.5" stroke-miterlimit="10"/>
<path d="M55.8341 39.4349H22.7657V43.905H55.8341V39.4349Z" fill="#F7F3EF" stroke="#602131" stroke-width="0.5" stroke-miterlimit="10"/>
<path d="M47.1158 47.5299H31.4827C30.2487 47.5299 29.2483 48.5303 29.2483 49.7643V49.7656C29.2483 50.9996 30.2487 51.9999 31.4827 51.9999H47.1158C48.3498 51.9999 49.3502 50.9996 49.3502 49.7656V49.7643C49.3502 48.5303 48.3498 47.5299 47.1158 47.5299Z" fill="#F7F3EF" stroke="#602131" stroke-width="0.5" stroke-miterlimit="10"/>
<path d="M35.643 15.3304L35.6889 15.4834C35.7157 15.5726 35.7858 15.6427 35.875 15.6695L36.028 15.7154C36.0433 15.7205 36.0433 15.7421 36.028 15.7472L35.875 15.7931C35.7858 15.8199 35.7157 15.89 35.6889 15.9792L35.643 16.1322C35.6379 16.1475 35.6163 16.1475 35.6112 16.1322L35.5653 15.9792C35.5385 15.89 35.4684 15.8199 35.3792 15.7931L35.2262 15.7472C35.2109 15.7421 35.2109 15.7205 35.2262 15.7154L35.3792 15.6695C35.4684 15.6427 35.5385 15.5726 35.5653 15.4834L35.6112 15.3304C35.6163 15.3151 35.6379 15.3151 35.643 15.3304Z" fill="#F7F3EF"/>
<path d="M44.0937 22.1978H55.8341" stroke="#602131" stroke-width="0.5" stroke-miterlimit="10"/>
<path d="M22.7657 22.1952H34.5048" stroke="#602131" stroke-width="0.5" stroke-miterlimit="10"/>
</svg>
