<svg width="99" height="68" viewBox="0 0 99 68" fill="none" xmlns="http://www.w3.org/2000/svg">
<g id="Logo">
<path id="Vector" d="M35.3195 12.498C35.3195 8.20694 38.6244 4.45947 43.334 4.45947C45.3569 4.48353 48.1663 4.97661 48.1663 7.27128C48.1663 9.0969 45.7008 10.872 40.1518 9.85939L40.2023 9.6381C43.1127 9.85939 44.5174 7.76436 44.5174 6.23459C44.5174 5.34703 44.171 4.70481 43.334 4.70481C41.263 4.70481 39.8824 8.00971 39.8824 10.6724C39.8824 13.3351 41.2149 14.7903 43.2113 14.8384C44.5174 14.8624 46.2685 14.468 47.3773 12.9406L47.5505 13.0151C45.874 16.0482 43.2113 17.8234 40.325 17.8234C37.4386 17.8234 35.3195 15.7764 35.3195 12.498Z" fill="white"/>
<path id="Vector_2" d="M61.7996 12.2526C61.2824 15.3603 61.2079 17.1089 62.2926 17.5299V17.6285C61.6504 17.7511 61.0611 17.8017 60.467 17.8017C58.372 17.8017 56.669 16.9622 57.1621 13.8329L58.1724 7.52138C58.3696 6.36202 58.3215 5.79437 57.7033 5.79437C56.3467 5.79437 54.6943 8.67833 53.7827 12.3536C53.3641 14.0542 52.6738 17.1113 53.5109 17.5323V17.6309C52.6474 17.7535 51.957 17.8281 51.3653 17.8281C49.417 17.8281 48.5295 16.9911 49.0731 13.958L50.4056 6.4871C50.5788 5.52497 50.1843 5.4023 49.3689 5.57549V5.47687C50.2324 4.98378 51.957 4.51475 53.1405 4.51475C54.5452 4.51475 55.1633 5.05834 54.7688 6.70838L53.4123 12.2815H53.5109C55.1633 5.99401 57.5782 4.46423 59.7983 4.46423C62.8795 4.46423 62.6823 7.05234 62.3865 8.7553L61.7947 12.2574L61.7996 12.2526Z" fill="white"/>
<path id="Vector_3" d="M72.6475 20.8805C74.0522 20.8805 75.0143 21.4722 75.0143 22.3597C75.0143 23.4445 73.6337 24.284 71.8586 24.284C69.7058 24.284 67.9259 23.7692 66.5717 22.8937C63.5554 24.0579 59.9427 25.3688 55.7334 25.3688C49.0755 25.3688 44.0965 20.955 40.0508 20.955C39.0646 20.955 38.4488 21.5227 38.177 22.1384L38.0784 22.0879C38.8433 20.3609 41.0129 18.7349 45.2029 18.7349C51.7117 18.7349 55.4111 23.7404 61.3786 23.7404C63.0984 23.7404 64.71 23.3243 66.3143 22.7181C64.2001 21.2148 63.2307 18.7758 63.6468 16.0482L65.3714 4.90442H64.2626L64.3131 4.65908C67.8633 4.65908 69.7876 3.49972 70.4033 0H70.6511L69.8622 4.65908H71.5868L71.5387 4.90442H69.8381L67.8657 16.5677C67.5386 18.5112 67.3703 20.5822 68.0654 22.0494C69.814 21.388 71.3462 20.8829 72.6499 20.8829L72.6475 20.8805ZM71.8586 24.0362C73.7323 24.0362 74.769 23.1487 74.769 22.3597C74.769 21.7175 74.0787 21.1258 72.6475 21.1258C71.3847 21.1258 69.8958 21.6189 68.1808 22.2707C68.7798 23.3387 69.903 24.0338 71.8586 24.0338V24.0362Z" fill="white"/>
<path id="Vector_4" d="M70.995 13.9533L72.3276 6.48238C72.5007 5.52026 72.1063 5.39759 71.2909 5.57077V5.47215C72.1544 4.97906 73.879 4.51003 75.0624 4.51003C76.4671 4.51003 77.0853 5.05363 76.6908 6.70367L75.3342 12.2768H75.4328C77.0852 6.01335 78.8844 4.3609 81.3018 4.3609C83.5459 4.3609 84.4094 5.93878 84.4094 7.34348C84.4094 9.21722 83.1274 10.5979 81.3523 10.5979C79.9476 10.5979 78.9349 9.73436 78.9614 8.3056C79.873 8.18293 80.7606 7.49261 80.7606 6.47998C80.7606 5.66698 80.3661 5.29657 79.7984 5.29657C78.2687 5.29657 76.7653 8.08191 75.7046 12.3489C75.2861 14.0495 74.5958 17.1066 75.4328 17.5275V17.6262C74.5693 17.7488 73.879 17.8234 73.2873 17.8234C71.339 17.8234 70.4514 16.9864 70.995 13.9533Z" fill="white"/>
<path id="Vector_5" d="M84.1857 12.9911C84.1857 8.20694 87.4906 4.45947 92.2002 4.45947C94.223 4.48353 97.0324 4.97661 97.0324 7.27128C97.0324 9.0969 94.567 10.872 89.0203 9.85939L89.0708 9.6381C91.9813 9.85939 93.386 7.76436 93.386 6.23459C93.386 5.34703 93.042 4.70481 92.2026 4.70481C90.1316 4.70481 88.7509 8.00971 88.7509 11.1655C88.7509 14.3212 90.3288 15.7764 92.3252 15.8245C93.6313 15.8486 95.3824 15.4541 96.4912 13.9268L96.6644 14.0013C94.9879 17.0344 92.3252 18.8095 89.4389 18.8095C86.5525 18.8095 84.1881 16.7626 84.1881 12.9911H84.1857Z" fill="white"/>
<path id="Vector_6" d="M19.0933 32.575C18.7758 28.6832 15.9448 24.7914 12.2117 24.7914C7.90862 24.7914 5.96273 29.1571 5.96273 35.548C5.96273 41.1644 7.51415 46.3213 12.3224 46.3213C16.1179 46.3213 18.6964 42.2708 19.2352 38.302L19.7884 38.3189L19.394 47.2402H18.9201C18.4607 46.1024 17.4481 45.2149 16.4523 45.0417C15.1077 46.3382 13.258 47.2402 10.8696 47.2402C4.50993 47.2402 0.00238037 41.4025 0.00238037 35.5023C0.00238037 29.602 4.82743 23.8918 10.8383 23.8918C13.258 23.8918 15.0764 24.8083 16.2791 25.8546C17.2917 25.6646 18.4944 24.8588 18.8888 23.8918H19.3627L19.6634 32.5606L19.0933 32.5774V32.575Z" fill="white"/>
<path id="Vector_7" d="M42.2011 35.5479C42.2011 41.9701 37.3616 47.2377 30.9851 47.2377C24.6087 47.2377 19.7379 41.9701 19.7379 35.5479C19.7379 29.1258 24.8636 23.8894 31.0164 23.8894C37.1692 23.8894 42.2011 29.0295 42.2011 35.5479ZM36.2528 36.3393C36.2528 28.8419 33.5468 24.9501 28.9286 24.9501C25.2268 24.9501 23.2184 27.4805 23.2184 30.4872C23.2184 33.6814 25.5275 35.6922 28.4692 35.6922C31.2521 35.6922 32.8516 33.9195 32.9142 31.976C32.6304 33.1787 31.6803 33.78 30.6508 33.78C29.3856 33.78 28.3561 32.8468 28.3561 31.4541C28.3561 30.0614 29.4 29.0825 30.7759 29.0825C32.3105 29.0825 33.3856 30.2851 33.3856 31.9616C33.3856 34.0975 31.6129 36.2334 28.4355 36.2334C27.1222 36.2334 25.8402 35.839 24.8131 35.0789C24.7818 35.4277 24.7506 35.964 24.7506 36.6135C24.7506 41.9749 26.4752 46.6893 30.5714 46.6893C34.4319 46.6893 36.2503 42.2275 36.2503 36.3441L36.2528 36.3393Z" fill="white"/>
<path id="Vector_8" d="M50.6774 24.4933C57.2727 24.4933 60.8951 26.6292 60.8951 31.2161C60.8951 35.2017 58.0641 38.0809 52.5583 38.0809C51.1657 38.0809 50.0424 37.8909 49.1885 37.5902V46.1002H52.0677V46.639H40.9792V46.1002H43.6202V25.0297H40.9792V24.4909H50.675L50.6774 24.4933ZM54.9324 31.3581C54.9324 27.1343 53.7466 25.0297 50.2492 25.0297H49.1885V37.0514C49.6792 37.2414 50.2805 37.3521 51.0069 37.3521C54.1555 37.3521 54.93 34.9468 54.93 31.3581H54.9324Z" fill="white"/>
<path id="Vector_9" d="M80.2723 46.0999H82.2976V46.6387H72.0149V46.0999H74.2927L71.5074 38.5545H65.1165C64.6739 40.041 64.4839 41.2605 64.4839 42.2562C64.4839 45.0873 66.0016 46.0999 67.6637 46.0999H67.7743V46.6387H59.1056V46.0999H59.1369C60.9889 46.0999 62.6799 43.6634 64.3732 38.949L69.7202 24.0793H72.1255L80.2723 46.0999ZM71.3197 38.0157L68.2506 29.7102L65.5302 37.2869C65.5302 37.3182 65.357 37.7607 65.2776 38.0133H71.3197V38.0157Z" fill="white"/>
<path id="Vector_10" d="M83.9716 27.6874C83.9716 30.0615 86.2807 31.4373 90.3312 33.5708C95.3776 36.2287 98.9999 38.6965 98.9999 44.5173C98.9999 50.9395 93.8285 54.1987 89.0829 54.1987C84.3372 54.1987 80.5416 51.0502 80.5416 47.0646C80.5416 44.1373 82.615 41.6069 85.8405 41.6069C88.799 41.6069 90.6656 43.7428 90.6656 45.9245C90.6656 47.6635 89.4797 48.7723 88.039 48.7723C86.5982 48.7723 85.5711 47.7453 85.5711 46.3358C85.5711 44.9263 86.6006 44.0267 87.8658 44.0267C89.0203 44.0267 89.891 44.8012 90.1749 45.8306C90.0474 44.0122 88.4984 42.1457 85.8092 42.1457C82.9301 42.1457 81.0804 44.3297 81.0804 47.002C81.0804 50.7038 84.6547 53.6623 89.0684 53.6623C92.9434 53.6623 96.3758 51.322 96.3758 47.334C96.3758 43.346 93.2272 41.5612 89.2897 39.6779C85.3354 37.7945 81.3498 35.5816 81.3498 30.7879C81.3498 26.6748 84.0702 23.8918 88.3565 23.8918C90.6175 23.8918 92.3421 24.6832 93.7035 25.8377C94.8748 25.7271 95.8538 24.8876 96.2651 23.8918H96.739L97.0877 32.4187L96.5826 32.4355C96.0438 28.1011 92.9747 24.4306 88.2771 24.4306C85.4605 24.4306 83.974 25.7439 83.974 27.6898L83.9716 27.6874Z" fill="white"/>
<path id="Vector_11" d="M95.1082 66.8145C94.2784 66.5018 92.828 66.1795 91.8322 66.1795C90.6896 66.1795 90.1124 65.5397 90.1124 64.2745C90.1124 63.512 90.1124 62.8842 90.1124 62.153C90.1124 61.1331 90.1148 59.9112 90.1148 57.8403C90.1148 56.5125 90.656 55.459 91.7239 54.7062C92.3541 54.2636 92.852 53.8402 93.4293 53.352C93.5616 53.2389 93.6987 53.1235 93.8382 53.0056C93.8839 52.9671 93.8959 52.8998 93.8622 52.8469C93.8286 52.7963 93.7636 52.7771 93.7083 52.806C91.1009 54.0952 87.6469 54.1674 85.1093 52.984C85.0564 52.9599 84.9963 52.9743 84.9626 53.0224C84.9289 53.0681 84.9313 53.1331 84.9722 53.174C85.232 53.4578 85.5423 53.6743 85.9343 53.9485C86.1412 54.0928 86.3769 54.2564 86.6439 54.4584C88.0246 55.4975 88.6668 56.5655 88.6668 57.8186C88.6668 59.1921 88.674 60.2648 88.6788 61.2943C88.6836 62.2468 88.6908 63.1656 88.6908 64.2528C88.6908 65.2679 88.5802 66.1795 87.2524 66.1795C86.0522 66.1795 84.585 66.4705 83.695 66.7207C83.4713 66.7832 83.3775 66.9708 83.3992 67.1223C83.4184 67.2595 83.5363 67.399 83.7575 67.399C84.33 67.399 87.4136 67.4206 90.1364 67.4399C92.4672 67.4567 94.668 67.4735 95.0168 67.4735C95.1972 67.4735 95.3295 67.3725 95.3583 67.2162C95.3896 67.0478 95.2814 66.8794 95.1058 66.8121L95.1082 66.8145Z" fill="white"/>
<path id="Vector_12" d="M3.24716 62.326H2.84788L2.00603 59.8365L1.16417 62.326H0.764887L0 58.2587H0.620569L1.11125 60.8708L1.96754 58.3934H2.04692L2.91042 60.8708L3.37464 58.2587H4.00724L3.24957 62.326H3.24716Z" fill="white"/>
<path id="Vector_13" d="M7.3963 62.2588V58.2564H8.00965V62.2588H7.3963Z" fill="white"/>
<path id="Vector_14" d="M14.3621 62.3381H14.2707L12.3368 59.815V62.2612H11.7234V58.1818H11.8149L13.7415 60.6929V58.2587H14.3621V62.3381Z" fill="white"/>
<path id="Vector_15" d="M18.071 62.2588V58.2564H20.2935V58.7663H18.6868V59.8006H20.2935V60.2865H18.6868V61.7465H20.2935V62.2564H18.071V62.2588Z" fill="white"/>
<path id="Vector_16" d="M28.2119 62.2588V58.2564H30.4344V58.7663H28.8276V59.8006H30.4344V60.2865H28.8276V61.7465H30.4344V62.2564H28.2119V62.2588Z" fill="white"/>
<path id="Vector_17" d="M35.6947 62.2588L34.9563 60.7748L34.1866 62.2588H33.5131L34.6099 60.2336L33.5516 58.2564H34.2515L34.9707 59.7116L35.7092 58.2564H36.3827L35.3099 60.2336L36.4019 62.2588H35.6971H35.6947Z" fill="white"/>
<path id="Vector_18" d="M40.9263 60.8758H40.325V62.2588H39.7116V58.2564H40.9407C41.8235 58.2564 42.2997 58.7784 42.2997 59.5264C42.2997 60.2264 41.8235 60.8734 40.9287 60.8734L40.9263 60.8758ZM40.8229 58.7615H40.3274V60.3707H40.818C41.3665 60.3707 41.6599 60.0075 41.6599 59.5216C41.6599 59.0357 41.3713 58.7615 40.8229 58.7615Z" fill="white"/>
<path id="Vector_19" d="M45.6912 62.2588V58.2564H47.9137V58.7663H46.3069V59.8006H47.9137V60.2865H46.3069V61.7465H47.9137V62.2564H45.6912V62.2588Z" fill="white"/>
<path id="Vector_20" d="M53.3425 62.2588L52.3418 60.5607H52.0027V62.2588H51.3893V58.2564H52.6112C53.3954 58.2564 53.9438 58.6653 53.9438 59.3797C53.9438 59.9546 53.4988 60.3538 52.9504 60.4549L54.0544 62.2612H53.3425V62.2588ZM52.5246 58.7615H52.0027V60.0796H52.337C52.8927 60.0796 53.316 59.8896 53.316 59.3797C53.316 58.9828 52.9817 58.7615 52.5246 58.7615Z" fill="white"/>
<path id="Vector_21" d="M57.4122 62.2588V58.2564H58.0256V62.2588H57.4122Z" fill="white"/>
<path id="Vector_22" d="M61.7371 62.2588V58.2564H63.9596V58.7663H62.3528V59.8006H63.9596V60.2865H62.3528V61.7465H63.9596V62.2564H61.7371V62.2588Z" fill="white"/>
<path id="Vector_23" d="M70.0738 62.3381H69.9824L68.0485 59.815V62.2612H67.4352V58.1818H67.5266L69.4532 60.6929V58.2587H70.0738V62.3381Z" fill="white"/>
<path id="Vector_24" d="M75.3799 62.2952C74.0594 62.2952 73.511 61.2609 73.511 60.205C73.511 59.0529 74.158 58.2206 75.4713 58.2206C75.5627 58.2206 75.6469 58.2206 75.784 58.2375L75.7455 58.7546C75.6734 58.7474 75.5964 58.7474 75.5435 58.7474C74.5308 58.7474 74.158 59.4257 74.158 60.1978C74.158 60.9699 74.5164 61.7661 75.4906 61.7661C75.5627 61.7661 75.6277 61.7588 75.6998 61.754L75.7335 62.2832C75.6156 62.288 75.4978 62.2952 75.3799 62.2952Z" fill="white"/>
<path id="Vector_25" d="M79.1033 62.2588V58.2564H81.3258V58.7663H79.719V59.8006H81.3258V60.2865H79.719V61.7465H81.3258V62.2564H79.1033V62.2588Z" fill="white"/>
</g>
</svg>
