<svg width="217" height="148" viewBox="0 0 217 148" fill="none" xmlns="http://www.w3.org/2000/svg">
<path d="M77.584 27.2478C77.584 17.8925 84.7892 9.72238 95.057 9.72238C99.4672 9.77482 105.592 10.8498 105.592 15.8526C105.592 19.8328 100.217 23.7029 88.1192 21.4952L88.2293 21.0127C94.5745 21.4952 97.637 16.9276 97.637 13.5925C97.637 11.6574 96.8819 10.2573 95.057 10.2573C90.5419 10.2573 87.5319 17.4625 87.5319 23.2676C87.5319 29.0727 90.437 32.2454 94.7895 32.3502C97.637 32.4027 101.455 31.5427 103.872 28.2127L104.25 28.3753C100.595 34.988 94.7895 38.858 88.4967 38.858C82.2039 38.858 77.584 34.3954 77.584 27.2478Z" fill="#F5F1ED"/>
<path d="M135.315 26.7129C134.188 33.4882 134.025 37.3006 136.39 38.2183V38.4333C134.99 38.7007 133.705 38.8108 132.41 38.8108C127.842 38.8108 124.13 36.9807 125.205 30.1582L127.407 16.398C127.837 13.8704 127.732 12.6328 126.385 12.6328C123.427 12.6328 119.824 18.9204 117.837 26.9332C116.924 30.6407 115.419 37.3058 117.244 38.2235V38.4385C115.362 38.706 113.857 38.8685 112.567 38.8685C108.319 38.8685 106.384 37.0436 107.569 30.4309L110.474 14.1431C110.852 12.0455 109.992 11.778 108.214 12.1556V11.9406C110.097 10.8656 113.857 9.84299 116.437 9.84299C119.499 9.84299 120.847 11.0281 119.987 14.6255L117.029 26.7759H117.244C120.847 13.068 126.112 9.73286 130.952 9.73286C137.67 9.73286 137.24 15.3754 136.595 19.0882L135.305 26.7234L135.315 26.7129Z" fill="#F5F1ED"/>
<path d="M158.966 45.5232C162.028 45.5232 164.126 46.8132 164.126 48.7482C164.126 51.1133 161.116 52.9434 157.246 52.9434C152.552 52.9434 148.672 51.8212 145.719 49.9124C139.143 52.4505 131.267 55.3085 122.09 55.3085C107.574 55.3085 96.7194 45.6857 87.899 45.6857C85.7489 45.6857 84.4065 46.9233 83.8139 48.2658L83.5989 48.1556C85.2665 44.3905 89.9966 40.8455 99.1316 40.8455C113.322 40.8455 121.387 51.7583 134.398 51.7583C138.147 51.7583 141.66 50.8511 145.158 49.5296C140.549 46.2521 138.435 40.9347 139.343 34.988L143.103 10.6925H140.685L140.795 10.1576C148.535 10.1576 152.731 7.63002 154.073 0H154.613L152.893 10.1576H156.653L156.548 10.6925H152.841L148.541 36.1207C147.827 40.3578 147.46 44.8729 148.976 48.0717C152.788 46.6296 156.129 45.5284 158.971 45.5284L158.966 45.5232ZM157.246 52.4033C161.331 52.4033 163.591 50.4683 163.591 48.7482C163.591 47.3481 162.086 46.058 158.966 46.058C156.213 46.058 152.967 47.1331 149.228 48.5542C150.533 50.8825 152.982 52.398 157.246 52.398V52.4033Z" fill="#F5F1ED"/>
<path d="M155.363 30.4204L158.268 14.1326C158.646 12.035 157.786 11.7675 156.008 12.1451V11.9301C157.891 10.8551 161.651 9.83248 164.231 9.83248C167.293 9.83248 168.641 11.0176 167.781 14.615L164.823 26.7654H165.038C168.641 13.11 172.563 9.50735 177.834 9.50735C182.726 9.50735 184.609 12.9474 184.609 16.0099C184.609 20.095 181.814 23.105 177.944 23.105C174.881 23.105 172.673 21.2225 172.731 18.1075C174.719 17.8401 176.654 16.335 176.654 14.1273C176.654 12.3548 175.794 11.5473 174.556 11.5473C171.221 11.5473 167.943 17.6198 165.631 26.9227C164.718 30.6302 163.213 37.2953 165.038 38.213V38.428C163.156 38.6955 161.651 38.858 160.361 38.858C156.113 38.858 154.178 37.0331 155.363 30.4204Z" fill="#F5F1ED"/>
<path d="M184.121 28.3229C184.121 17.8925 191.326 9.72238 201.594 9.72238C206.004 9.77482 212.129 10.8498 212.129 15.8526C212.129 19.8328 206.754 23.7029 194.662 21.4952L194.772 21.0127C201.117 21.4952 204.179 16.9276 204.179 13.5925C204.179 11.6574 203.43 10.2573 201.599 10.2573C197.084 10.2573 194.074 17.4625 194.074 24.3427C194.074 31.2228 197.514 34.3954 201.867 34.5003C204.714 34.5527 208.532 33.6927 210.949 30.3628L211.327 30.5253C207.672 37.138 201.867 41.0081 195.574 41.0081C189.281 41.0081 184.126 36.5454 184.126 28.3229H184.121Z" fill="#F5F1ED"/>
<path d="M42.208 71.0195C41.5158 62.5347 35.3436 54.0499 27.2049 54.0499C17.8234 54.0499 13.581 63.5678 13.581 77.5011C13.581 89.7458 16.9634 100.989 27.4461 100.989C35.7212 100.989 41.3427 92.158 42.5174 83.5054L43.7235 83.5422L42.8635 102.992H41.8304C40.8288 100.512 38.6211 98.5767 36.4501 98.1991C33.5187 101.026 29.486 102.992 24.2788 102.992C10.4136 102.992 0.586365 90.265 0.586365 77.4014C0.586365 64.5379 11.1058 52.0886 24.2106 52.0886C29.486 52.0886 33.4505 54.0866 36.0725 56.3677C38.2802 55.9535 40.9022 54.1967 41.7622 52.0886H42.7953L43.4508 70.988L42.208 71.0247V71.0195Z" fill="#F5F1ED"/>
<path d="M92.5871 77.5011C92.5871 91.5026 82.0362 102.987 68.1343 102.987C54.2325 102.987 43.6134 91.5026 43.6134 77.5011C43.6134 63.4996 54.7883 52.0834 68.2025 52.0834C81.6166 52.0834 92.5871 63.2898 92.5871 77.5011ZM79.6187 79.2264C79.6187 62.8808 73.7192 54.396 63.6507 54.396C55.5802 54.396 51.2014 59.9127 51.2014 66.4677C51.2014 73.4317 56.2357 77.8157 62.6491 77.8157C68.7164 77.8157 72.2037 73.9509 72.34 69.7137C71.7212 72.3357 69.6498 73.6467 67.4054 73.6467C64.6471 73.6467 62.4026 71.6121 62.4026 68.5758C62.4026 65.5395 64.6785 63.4052 67.6781 63.4052C71.0238 63.4052 73.3678 66.0272 73.3678 69.6823C73.3678 74.339 69.503 78.9956 62.5757 78.9956C59.7125 78.9956 56.9174 78.1356 54.6782 76.4785C54.61 77.2389 54.5419 78.4083 54.5419 79.8242C54.5419 91.5131 58.3018 101.791 67.2323 101.791C75.649 101.791 79.6134 92.0637 79.6134 79.2369L79.6187 79.2264Z" fill="#F5F1ED"/>
<path d="M111.067 53.3997C125.446 53.3997 133.343 58.0563 133.343 68.0566C133.343 76.746 127.171 83.023 115.168 83.023C112.131 83.023 109.683 82.6087 107.821 81.9532V100.507H114.098V101.681H89.9231V100.507H95.681V54.5691H89.9231V53.3944H111.062L111.067 53.3997ZM120.344 68.366C120.344 59.1576 117.758 54.5691 110.134 54.5691H107.821V80.7786C108.891 81.1929 110.202 81.4341 111.785 81.4341C118.65 81.4341 120.338 76.1901 120.338 68.366H120.344Z" fill="#F5F1ED"/>
<path d="M175.589 100.506H180.005V101.681H157.586V100.506H162.553L156.48 84.056H142.547C141.582 87.2968 141.167 89.9555 141.167 92.1266C141.167 98.2988 144.476 100.506 148.1 100.506H148.341V101.681H129.442V100.506H129.51C133.548 100.506 137.234 95.1943 140.926 84.9161L152.584 52.4977H157.828L175.589 100.506ZM156.071 82.8814L149.38 64.7739L143.449 81.2925C143.449 81.3606 143.071 82.3255 142.898 82.8761H156.071V82.8814Z" fill="#F5F1ED"/>
<path d="M183.654 60.3637C183.654 65.5395 188.689 68.5391 197.52 73.1905C208.521 78.9851 216.419 84.3655 216.419 97.0559C216.419 111.057 205.144 118.163 194.798 118.163C184.451 118.163 176.176 111.299 176.176 102.609C176.176 96.2274 180.697 90.7107 187.729 90.7107C194.179 90.7107 198.248 95.3674 198.248 100.124C198.248 103.915 195.663 106.333 192.522 106.333C189.381 106.333 187.142 104.093 187.142 101.02C187.142 97.9474 189.386 95.9862 192.144 95.9862C194.662 95.9862 196.56 97.6747 197.179 99.9192C196.901 95.9547 193.524 91.8854 187.661 91.8854C181.384 91.8854 177.351 96.6469 177.351 102.473C177.351 110.544 185.144 116.994 194.766 116.994C203.214 116.994 210.698 111.891 210.698 103.197C210.698 94.5021 203.833 90.6111 195.249 86.505C186.628 82.399 177.938 77.5745 177.938 67.1232C177.938 58.1559 183.869 52.0886 193.214 52.0886C198.144 52.0886 201.904 53.8139 204.872 56.331C207.425 56.0898 209.56 54.2597 210.456 52.0886H211.49L212.25 70.6786L211.149 70.7153C209.974 61.2656 203.283 53.2633 193.041 53.2633C186.9 53.2633 183.66 56.1265 183.66 60.3689L183.654 60.3637Z" fill="#F5F1ED"/>
<path d="M207.934 145.668C206.125 144.986 202.963 144.283 200.792 144.283C198.301 144.283 197.042 142.889 197.042 140.13C197.042 138.468 197.042 137.099 197.042 135.505C197.042 133.282 197.048 130.618 197.048 126.102C197.048 123.208 198.227 120.911 200.556 119.27C201.93 118.305 203.015 117.382 204.274 116.317C204.562 116.071 204.861 115.819 205.165 115.562C205.265 115.478 205.291 115.331 205.218 115.216C205.144 115.106 205.003 115.064 204.882 115.127C199.198 117.938 191.667 118.095 186.135 115.515C186.019 115.462 185.888 115.494 185.815 115.599C185.742 115.698 185.747 115.84 185.836 115.929C186.402 116.548 187.079 117.02 187.934 117.618C188.384 117.932 188.898 118.289 189.48 118.729C192.491 120.995 193.891 123.323 193.891 126.055C193.891 129.05 193.906 131.388 193.917 133.633C193.927 135.71 193.943 137.713 193.943 140.083C193.943 142.296 193.702 144.283 190.807 144.283C188.19 144.283 184.992 144.918 183.051 145.463C182.564 145.6 182.359 146.009 182.406 146.339C182.448 146.638 182.705 146.942 183.188 146.942C184.436 146.942 191.159 146.989 197.095 147.031C202.176 147.068 206.974 147.105 207.735 147.105C208.128 147.105 208.417 146.884 208.48 146.544C208.548 146.177 208.312 145.809 207.929 145.663L207.934 145.668Z" fill="#F5F1ED"/>
<path d="M7.66052 135.883H6.79001L4.95461 130.455L3.11921 135.883H2.24871L0.581116 127.015H1.93407L3.00384 132.71L4.87071 127.309H5.04376L6.92636 132.71L7.93845 127.015H9.31762L7.66576 135.883H7.66052Z" fill="#F5F1ED"/>
<path d="M16.7064 135.736V127.01H18.0436V135.736H16.7064Z" fill="#F5F1ED"/>
<path d="M31.893 135.909H31.6938L27.4776 130.408V135.741H26.1404V126.847H26.3397L30.5401 132.322V127.015H31.893V135.909Z" fill="#F5F1ED"/>
<path d="M39.9793 135.736V127.01H44.8247V128.121H41.3217V130.376H44.8247V131.436H41.3217V134.619H44.8247V135.73H39.9793V135.736Z" fill="#F5F1ED"/>
<path d="M62.088 135.736V127.01H66.9334V128.121H63.4304V130.376H66.9334V131.436H63.4304V134.619H66.9334V135.73H62.088V135.736Z" fill="#F5F1ED"/>
<path d="M78.4021 135.736L76.7922 132.5L75.1141 135.736H73.6458L76.0371 131.32L73.7297 127.01H75.2557L76.8237 130.182L78.4336 127.01H79.9019L77.5631 131.32L79.9439 135.736H78.4074H78.4021Z" fill="#F5F1ED"/>
<path d="M89.8078 132.72H88.4968V135.736H87.1596V127.01H89.8393C91.7638 127.01 92.8021 128.148 92.8021 129.779C92.8021 131.305 91.7638 132.715 89.813 132.715L89.8078 132.72ZM89.5823 128.111H88.502V131.619H89.5718C90.7674 131.619 91.4072 130.827 91.4072 129.768C91.4072 128.709 90.7779 128.111 89.5823 128.111Z" fill="#F5F1ED"/>
<path d="M100.196 135.736V127.01H105.042V128.121H101.539V130.376H105.042V131.436H101.539V134.619H105.042V135.73H100.196V135.736Z" fill="#F5F1ED"/>
<path d="M116.877 135.736L114.696 132.033H113.956V135.736H112.619V127.01H115.283C116.993 127.01 118.188 127.901 118.188 129.459C118.188 130.712 117.218 131.582 116.023 131.803L118.43 135.741H116.877V135.736ZM115.094 128.111H113.956V130.985H114.685C115.897 130.985 116.82 130.57 116.82 129.459C116.82 128.593 116.091 128.111 115.094 128.111Z" fill="#F5F1ED"/>
<path d="M125.75 135.736V127.01H127.087V135.736H125.75Z" fill="#F5F1ED"/>
<path d="M135.179 135.736V127.01H140.024V128.121H136.521V130.376H140.024V131.436H136.521V134.619H140.024V135.73H135.179V135.736Z" fill="#F5F1ED"/>
<path d="M153.355 135.909H153.155L148.939 130.408V135.741H147.602V126.847H147.801L152.002 132.322V127.015H153.355V135.909Z" fill="#F5F1ED"/>
<path d="M164.923 135.814C162.044 135.814 160.848 133.559 160.848 131.257C160.848 128.745 162.259 126.931 165.122 126.931C165.321 126.931 165.505 126.931 165.804 126.968L165.72 128.095C165.563 128.079 165.395 128.079 165.279 128.079C163.072 128.079 162.259 129.558 162.259 131.242C162.259 132.925 163.04 134.661 165.164 134.661C165.321 134.661 165.463 134.645 165.62 134.634L165.694 135.788C165.437 135.799 165.18 135.814 164.923 135.814Z" fill="#F5F1ED"/>
<path d="M173.041 135.736V127.01H177.886V128.121H174.383V130.376H177.886V131.436H174.383V134.619H177.886V135.73H173.041V135.736Z" fill="#F5F1ED"/>
</svg>
